G04 #@! TF.GenerationSoftware,KiCad,Pcbnew,(5.1.4)-1*
G04 #@! TF.CreationDate,2020-01-14T01:58:37-05:00*
G04 #@! TF.ProjectId,CANJunction,43414e4a-756e-4637-9469-6f6e2e6b6963,rev?*
G04 #@! TF.SameCoordinates,Original*
G04 #@! TF.FileFunction,Soldermask,Bot*
G04 #@! TF.FilePolarity,Negative*
%FSLAX46Y46*%
G04 Gerber Fmt 4.6, Leading zero omitted, Abs format (unit mm)*
G04 Created by KiCad (PCBNEW (5.1.4)-1) date 2020-01-14 01:58:37*
%MOMM*%
%LPD*%
G04 APERTURE LIST*
%ADD10C,0.100000*%
G04 APERTURE END LIST*
D10*
G36*
X152894072Y-65700918D02*
G01*
X153139939Y-65802759D01*
X153361212Y-65950610D01*
X153549390Y-66138788D01*
X153697241Y-66360061D01*
X153799082Y-66605928D01*
X153851000Y-66866938D01*
X153851000Y-67133062D01*
X153799082Y-67394072D01*
X153697241Y-67639939D01*
X153549390Y-67861212D01*
X153361212Y-68049390D01*
X153139939Y-68197241D01*
X153139938Y-68197242D01*
X153139937Y-68197242D01*
X152894072Y-68299082D01*
X152633063Y-68351000D01*
X152366937Y-68351000D01*
X152105928Y-68299082D01*
X151860063Y-68197242D01*
X151860062Y-68197242D01*
X151860061Y-68197241D01*
X151638788Y-68049390D01*
X151450610Y-67861212D01*
X151302759Y-67639939D01*
X151200918Y-67394072D01*
X151149000Y-67133062D01*
X151149000Y-66866938D01*
X151200918Y-66605928D01*
X151302759Y-66360061D01*
X151450610Y-66138788D01*
X151638788Y-65950610D01*
X151860061Y-65802759D01*
X152105928Y-65700918D01*
X152366937Y-65649000D01*
X152633063Y-65649000D01*
X152894072Y-65700918D01*
X152894072Y-65700918D01*
G37*
G36*
X149394072Y-65700918D02*
G01*
X149639939Y-65802759D01*
X149861212Y-65950610D01*
X150049390Y-66138788D01*
X150197241Y-66360061D01*
X150299082Y-66605928D01*
X150351000Y-66866938D01*
X150351000Y-67133062D01*
X150299082Y-67394072D01*
X150197241Y-67639939D01*
X150049390Y-67861212D01*
X149861212Y-68049390D01*
X149639939Y-68197241D01*
X149639938Y-68197242D01*
X149639937Y-68197242D01*
X149394072Y-68299082D01*
X149133063Y-68351000D01*
X148866937Y-68351000D01*
X148605928Y-68299082D01*
X148360063Y-68197242D01*
X148360062Y-68197242D01*
X148360061Y-68197241D01*
X148138788Y-68049390D01*
X147950610Y-67861212D01*
X147802759Y-67639939D01*
X147700918Y-67394072D01*
X147649000Y-67133062D01*
X147649000Y-66866938D01*
X147700918Y-66605928D01*
X147802759Y-66360061D01*
X147950610Y-66138788D01*
X148138788Y-65950610D01*
X148360061Y-65802759D01*
X148605928Y-65700918D01*
X148866937Y-65649000D01*
X149133063Y-65649000D01*
X149394072Y-65700918D01*
X149394072Y-65700918D01*
G37*
G36*
X142394072Y-65700918D02*
G01*
X142639939Y-65802759D01*
X142861212Y-65950610D01*
X143049390Y-66138788D01*
X143197241Y-66360061D01*
X143299082Y-66605928D01*
X143351000Y-66866938D01*
X143351000Y-67133062D01*
X143299082Y-67394072D01*
X143197241Y-67639939D01*
X143049390Y-67861212D01*
X142861212Y-68049390D01*
X142639939Y-68197241D01*
X142639938Y-68197242D01*
X142639937Y-68197242D01*
X142394072Y-68299082D01*
X142133063Y-68351000D01*
X141866937Y-68351000D01*
X141605928Y-68299082D01*
X141360063Y-68197242D01*
X141360062Y-68197242D01*
X141360061Y-68197241D01*
X141138788Y-68049390D01*
X140950610Y-67861212D01*
X140802759Y-67639939D01*
X140700918Y-67394072D01*
X140649000Y-67133062D01*
X140649000Y-66866938D01*
X140700918Y-66605928D01*
X140802759Y-66360061D01*
X140950610Y-66138788D01*
X141138788Y-65950610D01*
X141360061Y-65802759D01*
X141605928Y-65700918D01*
X141866937Y-65649000D01*
X142133063Y-65649000D01*
X142394072Y-65700918D01*
X142394072Y-65700918D01*
G37*
G36*
X145894072Y-65700918D02*
G01*
X146139939Y-65802759D01*
X146361212Y-65950610D01*
X146549390Y-66138788D01*
X146697241Y-66360061D01*
X146799082Y-66605928D01*
X146851000Y-66866938D01*
X146851000Y-67133062D01*
X146799082Y-67394072D01*
X146697241Y-67639939D01*
X146549390Y-67861212D01*
X146361212Y-68049390D01*
X146139939Y-68197241D01*
X146139938Y-68197242D01*
X146139937Y-68197242D01*
X145894072Y-68299082D01*
X145633063Y-68351000D01*
X145366937Y-68351000D01*
X145105928Y-68299082D01*
X144860063Y-68197242D01*
X144860062Y-68197242D01*
X144860061Y-68197241D01*
X144638788Y-68049390D01*
X144450610Y-67861212D01*
X144302759Y-67639939D01*
X144200918Y-67394072D01*
X144149000Y-67133062D01*
X144149000Y-66866938D01*
X144200918Y-66605928D01*
X144302759Y-66360061D01*
X144450610Y-66138788D01*
X144638788Y-65950610D01*
X144860061Y-65802759D01*
X145105928Y-65700918D01*
X145366937Y-65649000D01*
X145633063Y-65649000D01*
X145894072Y-65700918D01*
X145894072Y-65700918D01*
G37*
G36*
X135394072Y-65700918D02*
G01*
X135639939Y-65802759D01*
X135861212Y-65950610D01*
X136049390Y-66138788D01*
X136197241Y-66360061D01*
X136299082Y-66605928D01*
X136351000Y-66866938D01*
X136351000Y-67133062D01*
X136299082Y-67394072D01*
X136197241Y-67639939D01*
X136049390Y-67861212D01*
X135861212Y-68049390D01*
X135639939Y-68197241D01*
X135639938Y-68197242D01*
X135639937Y-68197242D01*
X135394072Y-68299082D01*
X135133063Y-68351000D01*
X134866937Y-68351000D01*
X134605928Y-68299082D01*
X134360063Y-68197242D01*
X134360062Y-68197242D01*
X134360061Y-68197241D01*
X134138788Y-68049390D01*
X133950610Y-67861212D01*
X133802759Y-67639939D01*
X133700918Y-67394072D01*
X133649000Y-67133062D01*
X133649000Y-66866938D01*
X133700918Y-66605928D01*
X133802759Y-66360061D01*
X133950610Y-66138788D01*
X134138788Y-65950610D01*
X134360061Y-65802759D01*
X134605928Y-65700918D01*
X134866937Y-65649000D01*
X135133063Y-65649000D01*
X135394072Y-65700918D01*
X135394072Y-65700918D01*
G37*
G36*
X138894072Y-65700918D02*
G01*
X139139939Y-65802759D01*
X139361212Y-65950610D01*
X139549390Y-66138788D01*
X139697241Y-66360061D01*
X139799082Y-66605928D01*
X139851000Y-66866938D01*
X139851000Y-67133062D01*
X139799082Y-67394072D01*
X139697241Y-67639939D01*
X139549390Y-67861212D01*
X139361212Y-68049390D01*
X139139939Y-68197241D01*
X139139938Y-68197242D01*
X139139937Y-68197242D01*
X138894072Y-68299082D01*
X138633063Y-68351000D01*
X138366937Y-68351000D01*
X138105928Y-68299082D01*
X137860063Y-68197242D01*
X137860062Y-68197242D01*
X137860061Y-68197241D01*
X137638788Y-68049390D01*
X137450610Y-67861212D01*
X137302759Y-67639939D01*
X137200918Y-67394072D01*
X137149000Y-67133062D01*
X137149000Y-66866938D01*
X137200918Y-66605928D01*
X137302759Y-66360061D01*
X137450610Y-66138788D01*
X137638788Y-65950610D01*
X137860061Y-65802759D01*
X138105928Y-65700918D01*
X138366937Y-65649000D01*
X138633063Y-65649000D01*
X138894072Y-65700918D01*
X138894072Y-65700918D01*
G37*
G36*
X152894072Y-60600918D02*
G01*
X153139939Y-60702759D01*
X153361212Y-60850610D01*
X153549390Y-61038788D01*
X153697241Y-61260061D01*
X153799082Y-61505928D01*
X153851000Y-61766938D01*
X153851000Y-62033062D01*
X153799082Y-62294072D01*
X153697241Y-62539939D01*
X153549390Y-62761212D01*
X153361212Y-62949390D01*
X153139939Y-63097241D01*
X153139938Y-63097242D01*
X153139937Y-63097242D01*
X152894072Y-63199082D01*
X152633063Y-63251000D01*
X152366937Y-63251000D01*
X152105928Y-63199082D01*
X151860063Y-63097242D01*
X151860062Y-63097242D01*
X151860061Y-63097241D01*
X151638788Y-62949390D01*
X151450610Y-62761212D01*
X151302759Y-62539939D01*
X151200918Y-62294072D01*
X151149000Y-62033062D01*
X151149000Y-61766938D01*
X151200918Y-61505928D01*
X151302759Y-61260061D01*
X151450610Y-61038788D01*
X151638788Y-60850610D01*
X151860061Y-60702759D01*
X152105928Y-60600918D01*
X152366937Y-60549000D01*
X152633063Y-60549000D01*
X152894072Y-60600918D01*
X152894072Y-60600918D01*
G37*
G36*
X149394072Y-60600918D02*
G01*
X149639939Y-60702759D01*
X149861212Y-60850610D01*
X150049390Y-61038788D01*
X150197241Y-61260061D01*
X150299082Y-61505928D01*
X150351000Y-61766938D01*
X150351000Y-62033062D01*
X150299082Y-62294072D01*
X150197241Y-62539939D01*
X150049390Y-62761212D01*
X149861212Y-62949390D01*
X149639939Y-63097241D01*
X149639938Y-63097242D01*
X149639937Y-63097242D01*
X149394072Y-63199082D01*
X149133063Y-63251000D01*
X148866937Y-63251000D01*
X148605928Y-63199082D01*
X148360063Y-63097242D01*
X148360062Y-63097242D01*
X148360061Y-63097241D01*
X148138788Y-62949390D01*
X147950610Y-62761212D01*
X147802759Y-62539939D01*
X147700918Y-62294072D01*
X147649000Y-62033062D01*
X147649000Y-61766938D01*
X147700918Y-61505928D01*
X147802759Y-61260061D01*
X147950610Y-61038788D01*
X148138788Y-60850610D01*
X148360061Y-60702759D01*
X148605928Y-60600918D01*
X148866937Y-60549000D01*
X149133063Y-60549000D01*
X149394072Y-60600918D01*
X149394072Y-60600918D01*
G37*
G36*
X142394072Y-60600918D02*
G01*
X142639939Y-60702759D01*
X142861212Y-60850610D01*
X143049390Y-61038788D01*
X143197241Y-61260061D01*
X143299082Y-61505928D01*
X143351000Y-61766938D01*
X143351000Y-62033062D01*
X143299082Y-62294072D01*
X143197241Y-62539939D01*
X143049390Y-62761212D01*
X142861212Y-62949390D01*
X142639939Y-63097241D01*
X142639938Y-63097242D01*
X142639937Y-63097242D01*
X142394072Y-63199082D01*
X142133063Y-63251000D01*
X141866937Y-63251000D01*
X141605928Y-63199082D01*
X141360063Y-63097242D01*
X141360062Y-63097242D01*
X141360061Y-63097241D01*
X141138788Y-62949390D01*
X140950610Y-62761212D01*
X140802759Y-62539939D01*
X140700918Y-62294072D01*
X140649000Y-62033062D01*
X140649000Y-61766938D01*
X140700918Y-61505928D01*
X140802759Y-61260061D01*
X140950610Y-61038788D01*
X141138788Y-60850610D01*
X141360061Y-60702759D01*
X141605928Y-60600918D01*
X141866937Y-60549000D01*
X142133063Y-60549000D01*
X142394072Y-60600918D01*
X142394072Y-60600918D01*
G37*
G36*
X145894072Y-60600918D02*
G01*
X146139939Y-60702759D01*
X146361212Y-60850610D01*
X146549390Y-61038788D01*
X146697241Y-61260061D01*
X146799082Y-61505928D01*
X146851000Y-61766938D01*
X146851000Y-62033062D01*
X146799082Y-62294072D01*
X146697241Y-62539939D01*
X146549390Y-62761212D01*
X146361212Y-62949390D01*
X146139939Y-63097241D01*
X146139938Y-63097242D01*
X146139937Y-63097242D01*
X145894072Y-63199082D01*
X145633063Y-63251000D01*
X145366937Y-63251000D01*
X145105928Y-63199082D01*
X144860063Y-63097242D01*
X144860062Y-63097242D01*
X144860061Y-63097241D01*
X144638788Y-62949390D01*
X144450610Y-62761212D01*
X144302759Y-62539939D01*
X144200918Y-62294072D01*
X144149000Y-62033062D01*
X144149000Y-61766938D01*
X144200918Y-61505928D01*
X144302759Y-61260061D01*
X144450610Y-61038788D01*
X144638788Y-60850610D01*
X144860061Y-60702759D01*
X145105928Y-60600918D01*
X145366937Y-60549000D01*
X145633063Y-60549000D01*
X145894072Y-60600918D01*
X145894072Y-60600918D01*
G37*
G36*
X135394072Y-60600918D02*
G01*
X135639939Y-60702759D01*
X135861212Y-60850610D01*
X136049390Y-61038788D01*
X136197241Y-61260061D01*
X136299082Y-61505928D01*
X136351000Y-61766938D01*
X136351000Y-62033062D01*
X136299082Y-62294072D01*
X136197241Y-62539939D01*
X136049390Y-62761212D01*
X135861212Y-62949390D01*
X135639939Y-63097241D01*
X135639938Y-63097242D01*
X135639937Y-63097242D01*
X135394072Y-63199082D01*
X135133063Y-63251000D01*
X134866937Y-63251000D01*
X134605928Y-63199082D01*
X134360063Y-63097242D01*
X134360062Y-63097242D01*
X134360061Y-63097241D01*
X134138788Y-62949390D01*
X133950610Y-62761212D01*
X133802759Y-62539939D01*
X133700918Y-62294072D01*
X133649000Y-62033062D01*
X133649000Y-61766938D01*
X133700918Y-61505928D01*
X133802759Y-61260061D01*
X133950610Y-61038788D01*
X134138788Y-60850610D01*
X134360061Y-60702759D01*
X134605928Y-60600918D01*
X134866937Y-60549000D01*
X135133063Y-60549000D01*
X135394072Y-60600918D01*
X135394072Y-60600918D01*
G37*
G36*
X138894072Y-60600918D02*
G01*
X139139939Y-60702759D01*
X139361212Y-60850610D01*
X139549390Y-61038788D01*
X139697241Y-61260061D01*
X139799082Y-61505928D01*
X139851000Y-61766938D01*
X139851000Y-62033062D01*
X139799082Y-62294072D01*
X139697241Y-62539939D01*
X139549390Y-62761212D01*
X139361212Y-62949390D01*
X139139939Y-63097241D01*
X139139938Y-63097242D01*
X139139937Y-63097242D01*
X138894072Y-63199082D01*
X138633063Y-63251000D01*
X138366937Y-63251000D01*
X138105928Y-63199082D01*
X137860063Y-63097242D01*
X137860062Y-63097242D01*
X137860061Y-63097241D01*
X137638788Y-62949390D01*
X137450610Y-62761212D01*
X137302759Y-62539939D01*
X137200918Y-62294072D01*
X137149000Y-62033062D01*
X137149000Y-61766938D01*
X137200918Y-61505928D01*
X137302759Y-61260061D01*
X137450610Y-61038788D01*
X137638788Y-60850610D01*
X137860061Y-60702759D01*
X138105928Y-60600918D01*
X138366937Y-60549000D01*
X138633063Y-60549000D01*
X138894072Y-60600918D01*
X138894072Y-60600918D01*
G37*
G36*
X133394072Y-55200918D02*
G01*
X133639939Y-55302759D01*
X133751328Y-55377187D01*
X133861211Y-55450609D01*
X134049391Y-55638789D01*
X134197242Y-55860063D01*
X134299082Y-56105928D01*
X134317246Y-56197242D01*
X134351000Y-56366938D01*
X134351000Y-56633062D01*
X134299082Y-56894072D01*
X134197241Y-57139939D01*
X134049390Y-57361212D01*
X133861212Y-57549390D01*
X133639939Y-57697241D01*
X133639938Y-57697242D01*
X133639937Y-57697242D01*
X133394072Y-57799082D01*
X133133063Y-57851000D01*
X132866937Y-57851000D01*
X132605928Y-57799082D01*
X132360063Y-57697242D01*
X132360062Y-57697242D01*
X132360061Y-57697241D01*
X132138788Y-57549390D01*
X131950610Y-57361212D01*
X131802759Y-57139939D01*
X131700918Y-56894072D01*
X131649000Y-56633062D01*
X131649000Y-56366938D01*
X131682755Y-56197242D01*
X131700918Y-56105928D01*
X131802758Y-55860063D01*
X131950609Y-55638789D01*
X132138789Y-55450609D01*
X132248672Y-55377187D01*
X132360061Y-55302759D01*
X132605928Y-55200918D01*
X132866937Y-55149000D01*
X133133063Y-55149000D01*
X133394072Y-55200918D01*
X133394072Y-55200918D01*
G37*
G36*
X138494072Y-55200918D02*
G01*
X138739939Y-55302759D01*
X138851328Y-55377187D01*
X138961211Y-55450609D01*
X139149391Y-55638789D01*
X139297242Y-55860063D01*
X139399082Y-56105928D01*
X139417246Y-56197242D01*
X139451000Y-56366938D01*
X139451000Y-56633062D01*
X139399082Y-56894072D01*
X139297241Y-57139939D01*
X139149390Y-57361212D01*
X138961212Y-57549390D01*
X138739939Y-57697241D01*
X138739938Y-57697242D01*
X138739937Y-57697242D01*
X138494072Y-57799082D01*
X138233063Y-57851000D01*
X137966937Y-57851000D01*
X137705928Y-57799082D01*
X137460063Y-57697242D01*
X137460062Y-57697242D01*
X137460061Y-57697241D01*
X137238788Y-57549390D01*
X137050610Y-57361212D01*
X136902759Y-57139939D01*
X136800918Y-56894072D01*
X136749000Y-56633062D01*
X136749000Y-56366938D01*
X136782755Y-56197242D01*
X136800918Y-56105928D01*
X136902758Y-55860063D01*
X137050609Y-55638789D01*
X137238789Y-55450609D01*
X137348672Y-55377187D01*
X137460061Y-55302759D01*
X137705928Y-55200918D01*
X137966937Y-55149000D01*
X138233063Y-55149000D01*
X138494072Y-55200918D01*
X138494072Y-55200918D01*
G37*
G36*
X149294072Y-53700918D02*
G01*
X149539939Y-53802759D01*
X149761212Y-53950610D01*
X149949390Y-54138788D01*
X150091187Y-54351000D01*
X150097242Y-54360063D01*
X150199082Y-54605928D01*
X150251000Y-54866937D01*
X150251000Y-55133063D01*
X150199082Y-55394072D01*
X150097718Y-55638789D01*
X150097241Y-55639939D01*
X149949390Y-55861212D01*
X149761212Y-56049390D01*
X149539939Y-56197241D01*
X149539938Y-56197242D01*
X149539937Y-56197242D01*
X149294072Y-56299082D01*
X149033063Y-56351000D01*
X148766937Y-56351000D01*
X148505928Y-56299082D01*
X148260063Y-56197242D01*
X148260062Y-56197242D01*
X148260061Y-56197241D01*
X148038788Y-56049390D01*
X147850610Y-55861212D01*
X147702759Y-55639939D01*
X147702283Y-55638789D01*
X147600918Y-55394072D01*
X147549000Y-55133063D01*
X147549000Y-54866937D01*
X147600918Y-54605928D01*
X147702758Y-54360063D01*
X147708814Y-54351000D01*
X147850610Y-54138788D01*
X148038788Y-53950610D01*
X148260061Y-53802759D01*
X148505928Y-53700918D01*
X148766937Y-53649000D01*
X149033063Y-53649000D01*
X149294072Y-53700918D01*
X149294072Y-53700918D01*
G37*
G36*
X154394072Y-53700918D02*
G01*
X154639939Y-53802759D01*
X154861212Y-53950610D01*
X155049390Y-54138788D01*
X155191187Y-54351000D01*
X155197242Y-54360063D01*
X155299082Y-54605928D01*
X155351000Y-54866937D01*
X155351000Y-55133063D01*
X155299082Y-55394072D01*
X155197718Y-55638789D01*
X155197241Y-55639939D01*
X155049390Y-55861212D01*
X154861212Y-56049390D01*
X154639939Y-56197241D01*
X154639938Y-56197242D01*
X154639937Y-56197242D01*
X154394072Y-56299082D01*
X154133063Y-56351000D01*
X153866937Y-56351000D01*
X153605928Y-56299082D01*
X153360063Y-56197242D01*
X153360062Y-56197242D01*
X153360061Y-56197241D01*
X153138788Y-56049390D01*
X152950610Y-55861212D01*
X152802759Y-55639939D01*
X152802283Y-55638789D01*
X152700918Y-55394072D01*
X152649000Y-55133063D01*
X152649000Y-54866937D01*
X152700918Y-54605928D01*
X152802758Y-54360063D01*
X152808814Y-54351000D01*
X152950610Y-54138788D01*
X153138788Y-53950610D01*
X153360061Y-53802759D01*
X153605928Y-53700918D01*
X153866937Y-53649000D01*
X154133063Y-53649000D01*
X154394072Y-53700918D01*
X154394072Y-53700918D01*
G37*
G36*
X138494072Y-51700918D02*
G01*
X138739939Y-51802759D01*
X138851328Y-51877187D01*
X138961211Y-51950609D01*
X139149391Y-52138789D01*
X139297242Y-52360063D01*
X139399082Y-52605928D01*
X139417246Y-52697242D01*
X139451000Y-52866938D01*
X139451000Y-53133062D01*
X139399082Y-53394072D01*
X139297241Y-53639939D01*
X139149390Y-53861212D01*
X138961212Y-54049390D01*
X138739939Y-54197241D01*
X138739938Y-54197242D01*
X138739937Y-54197242D01*
X138494072Y-54299082D01*
X138233063Y-54351000D01*
X137966937Y-54351000D01*
X137705928Y-54299082D01*
X137460063Y-54197242D01*
X137460062Y-54197242D01*
X137460061Y-54197241D01*
X137238788Y-54049390D01*
X137050610Y-53861212D01*
X136902759Y-53639939D01*
X136800918Y-53394072D01*
X136749000Y-53133062D01*
X136749000Y-52866938D01*
X136782755Y-52697242D01*
X136800918Y-52605928D01*
X136902758Y-52360063D01*
X137050609Y-52138789D01*
X137238789Y-51950609D01*
X137348672Y-51877187D01*
X137460061Y-51802759D01*
X137705928Y-51700918D01*
X137966937Y-51649000D01*
X138233063Y-51649000D01*
X138494072Y-51700918D01*
X138494072Y-51700918D01*
G37*
G36*
X133394072Y-51700918D02*
G01*
X133639939Y-51802759D01*
X133751328Y-51877187D01*
X133861211Y-51950609D01*
X134049391Y-52138789D01*
X134197242Y-52360063D01*
X134299082Y-52605928D01*
X134317246Y-52697242D01*
X134351000Y-52866938D01*
X134351000Y-53133062D01*
X134299082Y-53394072D01*
X134197241Y-53639939D01*
X134049390Y-53861212D01*
X133861212Y-54049390D01*
X133639939Y-54197241D01*
X133639938Y-54197242D01*
X133639937Y-54197242D01*
X133394072Y-54299082D01*
X133133063Y-54351000D01*
X132866937Y-54351000D01*
X132605928Y-54299082D01*
X132360063Y-54197242D01*
X132360062Y-54197242D01*
X132360061Y-54197241D01*
X132138788Y-54049390D01*
X131950610Y-53861212D01*
X131802759Y-53639939D01*
X131700918Y-53394072D01*
X131649000Y-53133062D01*
X131649000Y-52866938D01*
X131682755Y-52697242D01*
X131700918Y-52605928D01*
X131802758Y-52360063D01*
X131950609Y-52138789D01*
X132138789Y-51950609D01*
X132248672Y-51877187D01*
X132360061Y-51802759D01*
X132605928Y-51700918D01*
X132866937Y-51649000D01*
X133133063Y-51649000D01*
X133394072Y-51700918D01*
X133394072Y-51700918D01*
G37*
G36*
X149294072Y-50200918D02*
G01*
X149539939Y-50302759D01*
X149651328Y-50377187D01*
X149761211Y-50450609D01*
X149949391Y-50638789D01*
X150097242Y-50860063D01*
X150199082Y-51105928D01*
X150251000Y-51366937D01*
X150251000Y-51633063D01*
X150199082Y-51894072D01*
X150097718Y-52138789D01*
X150097241Y-52139939D01*
X149949390Y-52361212D01*
X149761212Y-52549390D01*
X149539939Y-52697241D01*
X149539938Y-52697242D01*
X149539937Y-52697242D01*
X149294072Y-52799082D01*
X149033063Y-52851000D01*
X148766937Y-52851000D01*
X148505928Y-52799082D01*
X148260063Y-52697242D01*
X148260062Y-52697242D01*
X148260061Y-52697241D01*
X148038788Y-52549390D01*
X147850610Y-52361212D01*
X147702759Y-52139939D01*
X147702283Y-52138789D01*
X147600918Y-51894072D01*
X147549000Y-51633063D01*
X147549000Y-51366937D01*
X147600918Y-51105928D01*
X147702758Y-50860063D01*
X147850609Y-50638789D01*
X148038789Y-50450609D01*
X148148672Y-50377187D01*
X148260061Y-50302759D01*
X148505928Y-50200918D01*
X148766937Y-50149000D01*
X149033063Y-50149000D01*
X149294072Y-50200918D01*
X149294072Y-50200918D01*
G37*
G36*
X154394072Y-50200918D02*
G01*
X154639939Y-50302759D01*
X154751328Y-50377187D01*
X154861211Y-50450609D01*
X155049391Y-50638789D01*
X155197242Y-50860063D01*
X155299082Y-51105928D01*
X155351000Y-51366937D01*
X155351000Y-51633063D01*
X155299082Y-51894072D01*
X155197718Y-52138789D01*
X155197241Y-52139939D01*
X155049390Y-52361212D01*
X154861212Y-52549390D01*
X154639939Y-52697241D01*
X154639938Y-52697242D01*
X154639937Y-52697242D01*
X154394072Y-52799082D01*
X154133063Y-52851000D01*
X153866937Y-52851000D01*
X153605928Y-52799082D01*
X153360063Y-52697242D01*
X153360062Y-52697242D01*
X153360061Y-52697241D01*
X153138788Y-52549390D01*
X152950610Y-52361212D01*
X152802759Y-52139939D01*
X152802283Y-52138789D01*
X152700918Y-51894072D01*
X152649000Y-51633063D01*
X152649000Y-51366937D01*
X152700918Y-51105928D01*
X152802758Y-50860063D01*
X152950609Y-50638789D01*
X153138789Y-50450609D01*
X153248672Y-50377187D01*
X153360061Y-50302759D01*
X153605928Y-50200918D01*
X153866937Y-50149000D01*
X154133063Y-50149000D01*
X154394072Y-50200918D01*
X154394072Y-50200918D01*
G37*
M02*
