M48
INCH,TZ
T1C0.0512
T2C0.2520
%
G90
G05
T1
X54370Y-22244
X58622Y-20276
X58622Y-21654
X60630Y-20276
X60630Y-21654
X53150Y-24370
X53150Y-26378
X54528Y-24370
X54528Y-26378
X55906Y-24370
X55906Y-26378
X57283Y-24370
X57283Y-26378
X58661Y-24370
X58661Y-26378
X60039Y-24370
X60039Y-26378
X52362Y-20866
X52362Y-22244
X54370Y-20866
T2
X49606Y-25984
X62992Y-25984
T0
M30
