G04 #@! TF.GenerationSoftware,KiCad,Pcbnew,(5.1.4)-1*
G04 #@! TF.CreationDate,2020-01-14T01:58:37-05:00*
G04 #@! TF.ProjectId,CANJunction,43414e4a-756e-4637-9469-6f6e2e6b6963,rev?*
G04 #@! TF.SameCoordinates,Original*
G04 #@! TF.FileFunction,Copper,L2,Bot*
G04 #@! TF.FilePolarity,Positive*
%FSLAX46Y46*%
G04 Gerber Fmt 4.6, Leading zero omitted, Abs format (unit mm)*
G04 Created by KiCad (PCBNEW (5.1.4)-1) date 2020-01-14 01:58:37*
%MOMM*%
%LPD*%
G04 APERTURE LIST*
%ADD10C,2.600000*%
%ADD11C,8.000000*%
%ADD12C,0.500000*%
G04 APERTURE END LIST*
D10*
X133000000Y-53000000D03*
X133000000Y-56500000D03*
X138100000Y-53000000D03*
X138100000Y-56500000D03*
X135000000Y-67000000D03*
X138500000Y-67000000D03*
X135000000Y-61900000D03*
X138500000Y-61900000D03*
X142000000Y-61900000D03*
X145500000Y-61900000D03*
X152500000Y-61900000D03*
X149000000Y-61900000D03*
X145500000Y-67000000D03*
X142000000Y-67000000D03*
X152500000Y-67000000D03*
X149000000Y-67000000D03*
X148900000Y-51500000D03*
X148900000Y-55000000D03*
X154000000Y-51500000D03*
X154000000Y-55000000D03*
D11*
X160000000Y-66000000D03*
X126000000Y-66000000D03*
D12*
X148900000Y-55000000D02*
X145000000Y-55000000D01*
X138100000Y-53000000D02*
X143000000Y-53000000D01*
X143000000Y-53000000D02*
X145000000Y-55000000D01*
X154000000Y-55000000D02*
X148900000Y-55000000D01*
X138100000Y-53000000D02*
X133000000Y-53000000D01*
X135000000Y-61900000D02*
X135000000Y-67000000D01*
X142000000Y-61900000D02*
X142000000Y-67000000D01*
X149000000Y-67000000D02*
X149000000Y-61900000D01*
X149000000Y-55100000D02*
X148900000Y-55000000D01*
X149000000Y-61900000D02*
X149000000Y-55100000D01*
X135000000Y-56100000D02*
X138100000Y-53000000D01*
X135000000Y-61900000D02*
X135000000Y-56100000D01*
X142000000Y-61900000D02*
X142000000Y-58000000D01*
X142000000Y-58000000D02*
X145000000Y-55000000D01*
M02*
