G04 #@! TF.GenerationSoftware,KiCad,Pcbnew,(5.1.12)-1*
G04 #@! TF.CreationDate,2021-12-03T11:34:15-05:00*
G04 #@! TF.ProjectId,CANJunction,43414e4a-756e-4637-9469-6f6e2e6b6963,rev?*
G04 #@! TF.SameCoordinates,Original*
G04 #@! TF.FileFunction,Legend,Bot*
G04 #@! TF.FilePolarity,Positive*
%FSLAX46Y46*%
G04 Gerber Fmt 4.6, Leading zero omitted, Abs format (unit mm)*
G04 Created by KiCad (PCBNEW (5.1.12)-1) date 2021-12-03 11:34:15*
%MOMM*%
%LPD*%
G01*
G04 APERTURE LIST*
%ADD10C,0.150000*%
G04 APERTURE END LIST*
D10*
X153895238Y-70352380D02*
X153657142Y-71352380D01*
X153466666Y-70638095D01*
X153276190Y-71352380D01*
X153038095Y-70352380D01*
X152657142Y-71352380D02*
X152657142Y-70352380D01*
X152228571Y-71352380D02*
X152228571Y-70828571D01*
X152276190Y-70733333D01*
X152371428Y-70685714D01*
X152514285Y-70685714D01*
X152609523Y-70733333D01*
X152657142Y-70780952D01*
X151323809Y-71352380D02*
X151323809Y-70828571D01*
X151371428Y-70733333D01*
X151466666Y-70685714D01*
X151657142Y-70685714D01*
X151752380Y-70733333D01*
X151323809Y-71304761D02*
X151419047Y-71352380D01*
X151657142Y-71352380D01*
X151752380Y-71304761D01*
X151800000Y-71209523D01*
X151800000Y-71114285D01*
X151752380Y-71019047D01*
X151657142Y-70971428D01*
X151419047Y-70971428D01*
X151323809Y-70923809D01*
X150990476Y-70685714D02*
X150609523Y-70685714D01*
X150847619Y-70352380D02*
X150847619Y-71209523D01*
X150800000Y-71304761D01*
X150704761Y-71352380D01*
X150609523Y-71352380D01*
X150228571Y-70352380D02*
X150323809Y-70542857D01*
X149847619Y-71304761D02*
X149752380Y-71352380D01*
X149561904Y-71352380D01*
X149466666Y-71304761D01*
X149419047Y-71209523D01*
X149419047Y-71161904D01*
X149466666Y-71066666D01*
X149561904Y-71019047D01*
X149704761Y-71019047D01*
X149800000Y-70971428D01*
X149847619Y-70876190D01*
X149847619Y-70828571D01*
X149800000Y-70733333D01*
X149704761Y-70685714D01*
X149561904Y-70685714D01*
X149466666Y-70733333D01*
X148323809Y-70685714D02*
X148085714Y-71352380D01*
X147847619Y-70685714D02*
X148085714Y-71352380D01*
X148180952Y-71590476D01*
X148228571Y-71638095D01*
X148323809Y-71685714D01*
X147323809Y-71352380D02*
X147419047Y-71304761D01*
X147466666Y-71257142D01*
X147514285Y-71161904D01*
X147514285Y-70876190D01*
X147466666Y-70780952D01*
X147419047Y-70733333D01*
X147323809Y-70685714D01*
X147180952Y-70685714D01*
X147085714Y-70733333D01*
X147038095Y-70780952D01*
X146990476Y-70876190D01*
X146990476Y-71161904D01*
X147038095Y-71257142D01*
X147085714Y-71304761D01*
X147180952Y-71352380D01*
X147323809Y-71352380D01*
X146133333Y-70685714D02*
X146133333Y-71352380D01*
X146561904Y-70685714D02*
X146561904Y-71209523D01*
X146514285Y-71304761D01*
X146419047Y-71352380D01*
X146276190Y-71352380D01*
X146180952Y-71304761D01*
X146133333Y-71257142D01*
X145657142Y-71352380D02*
X145657142Y-70685714D01*
X145657142Y-70876190D02*
X145609523Y-70780952D01*
X145561904Y-70733333D01*
X145466666Y-70685714D01*
X145371428Y-70685714D01*
X144419047Y-70685714D02*
X144038095Y-70685714D01*
X144276190Y-71352380D02*
X144276190Y-70495238D01*
X144228571Y-70400000D01*
X144133333Y-70352380D01*
X144038095Y-70352380D01*
X143276190Y-70685714D02*
X143276190Y-71352380D01*
X143704761Y-70685714D02*
X143704761Y-71209523D01*
X143657142Y-71304761D01*
X143561904Y-71352380D01*
X143419047Y-71352380D01*
X143323809Y-71304761D01*
X143276190Y-71257142D01*
X142800000Y-70685714D02*
X142800000Y-71352380D01*
X142800000Y-70780952D02*
X142752380Y-70733333D01*
X142657142Y-70685714D01*
X142514285Y-70685714D01*
X142419047Y-70733333D01*
X142371428Y-70828571D01*
X142371428Y-71352380D01*
X141466666Y-71304761D02*
X141561904Y-71352380D01*
X141752380Y-71352380D01*
X141847619Y-71304761D01*
X141895238Y-71257142D01*
X141942857Y-71161904D01*
X141942857Y-70876190D01*
X141895238Y-70780952D01*
X141847619Y-70733333D01*
X141752380Y-70685714D01*
X141561904Y-70685714D01*
X141466666Y-70733333D01*
X141180952Y-70685714D02*
X140800000Y-70685714D01*
X141038095Y-70352380D02*
X141038095Y-71209523D01*
X140990476Y-71304761D01*
X140895238Y-71352380D01*
X140800000Y-71352380D01*
X140466666Y-71352380D02*
X140466666Y-70685714D01*
X140466666Y-70352380D02*
X140514285Y-70400000D01*
X140466666Y-70447619D01*
X140419047Y-70400000D01*
X140466666Y-70352380D01*
X140466666Y-70447619D01*
X139847619Y-71352380D02*
X139942857Y-71304761D01*
X139990476Y-71257142D01*
X140038095Y-71161904D01*
X140038095Y-70876190D01*
X139990476Y-70780952D01*
X139942857Y-70733333D01*
X139847619Y-70685714D01*
X139704761Y-70685714D01*
X139609523Y-70733333D01*
X139561904Y-70780952D01*
X139514285Y-70876190D01*
X139514285Y-71161904D01*
X139561904Y-71257142D01*
X139609523Y-71304761D01*
X139704761Y-71352380D01*
X139847619Y-71352380D01*
X139085714Y-70685714D02*
X139085714Y-71352380D01*
X139085714Y-70780952D02*
X139038095Y-70733333D01*
X138942857Y-70685714D01*
X138800000Y-70685714D01*
X138704761Y-70733333D01*
X138657142Y-70828571D01*
X138657142Y-71352380D01*
X138038095Y-71257142D02*
X137990476Y-71304761D01*
X138038095Y-71352380D01*
X138085714Y-71304761D01*
X138038095Y-71257142D01*
X138038095Y-71352380D01*
X138228571Y-70400000D02*
X138133333Y-70352380D01*
X137895238Y-70352380D01*
X137800000Y-70400000D01*
X137752380Y-70495238D01*
X137752380Y-70590476D01*
X137800000Y-70685714D01*
X137847619Y-70733333D01*
X137942857Y-70780952D01*
X137990476Y-70828571D01*
X138038095Y-70923809D01*
X138038095Y-70971428D01*
X153428571Y-69857142D02*
X153476190Y-69904761D01*
X153619047Y-69952380D01*
X153714285Y-69952380D01*
X153857142Y-69904761D01*
X153952380Y-69809523D01*
X154000000Y-69714285D01*
X154047619Y-69523809D01*
X154047619Y-69380952D01*
X154000000Y-69190476D01*
X153952380Y-69095238D01*
X153857142Y-69000000D01*
X153714285Y-68952380D01*
X153619047Y-68952380D01*
X153476190Y-69000000D01*
X153428571Y-69047619D01*
X153047619Y-69666666D02*
X152571428Y-69666666D01*
X153142857Y-69952380D02*
X152809523Y-68952380D01*
X152476190Y-69952380D01*
X152142857Y-69952380D02*
X152142857Y-68952380D01*
X151571428Y-69952380D01*
X151571428Y-68952380D01*
X150809523Y-68952380D02*
X150809523Y-69666666D01*
X150857142Y-69809523D01*
X150952380Y-69904761D01*
X151095238Y-69952380D01*
X151190476Y-69952380D01*
X149904761Y-69285714D02*
X149904761Y-69952380D01*
X150333333Y-69285714D02*
X150333333Y-69809523D01*
X150285714Y-69904761D01*
X150190476Y-69952380D01*
X150047619Y-69952380D01*
X149952380Y-69904761D01*
X149904761Y-69857142D01*
X149428571Y-69285714D02*
X149428571Y-69952380D01*
X149428571Y-69380952D02*
X149380952Y-69333333D01*
X149285714Y-69285714D01*
X149142857Y-69285714D01*
X149047619Y-69333333D01*
X149000000Y-69428571D01*
X149000000Y-69952380D01*
X148095238Y-69904761D02*
X148190476Y-69952380D01*
X148380952Y-69952380D01*
X148476190Y-69904761D01*
X148523809Y-69857142D01*
X148571428Y-69761904D01*
X148571428Y-69476190D01*
X148523809Y-69380952D01*
X148476190Y-69333333D01*
X148380952Y-69285714D01*
X148190476Y-69285714D01*
X148095238Y-69333333D01*
X147809523Y-69285714D02*
X147428571Y-69285714D01*
X147666666Y-68952380D02*
X147666666Y-69809523D01*
X147619047Y-69904761D01*
X147523809Y-69952380D01*
X147428571Y-69952380D01*
X147095238Y-69952380D02*
X147095238Y-69285714D01*
X147095238Y-68952380D02*
X147142857Y-69000000D01*
X147095238Y-69047619D01*
X147047619Y-69000000D01*
X147095238Y-68952380D01*
X147095238Y-69047619D01*
X146476190Y-69952380D02*
X146571428Y-69904761D01*
X146619047Y-69857142D01*
X146666666Y-69761904D01*
X146666666Y-69476190D01*
X146619047Y-69380952D01*
X146571428Y-69333333D01*
X146476190Y-69285714D01*
X146333333Y-69285714D01*
X146238095Y-69333333D01*
X146190476Y-69380952D01*
X146142857Y-69476190D01*
X146142857Y-69761904D01*
X146190476Y-69857142D01*
X146238095Y-69904761D01*
X146333333Y-69952380D01*
X146476190Y-69952380D01*
X145714285Y-69285714D02*
X145714285Y-69952380D01*
X145714285Y-69380952D02*
X145666666Y-69333333D01*
X145571428Y-69285714D01*
X145428571Y-69285714D01*
X145333333Y-69333333D01*
X145285714Y-69428571D01*
X145285714Y-69952380D01*
X144523809Y-68952380D02*
X144523809Y-69666666D01*
X144571428Y-69809523D01*
X144666666Y-69904761D01*
X144809523Y-69952380D01*
X144904761Y-69952380D01*
X143619047Y-69285714D02*
X143619047Y-69952380D01*
X144047619Y-69285714D02*
X144047619Y-69809523D01*
X144000000Y-69904761D01*
X143904761Y-69952380D01*
X143761904Y-69952380D01*
X143666666Y-69904761D01*
X143619047Y-69857142D01*
X143142857Y-69285714D02*
X143142857Y-69952380D01*
X143142857Y-69380952D02*
X143095238Y-69333333D01*
X143000000Y-69285714D01*
X142857142Y-69285714D01*
X142761904Y-69333333D01*
X142714285Y-69428571D01*
X142714285Y-69952380D01*
X141809523Y-69904761D02*
X141904761Y-69952380D01*
X142095238Y-69952380D01*
X142190476Y-69904761D01*
X142238095Y-69857142D01*
X142285714Y-69761904D01*
X142285714Y-69476190D01*
X142238095Y-69380952D01*
X142190476Y-69333333D01*
X142095238Y-69285714D01*
X141904761Y-69285714D01*
X141809523Y-69333333D01*
X141523809Y-69285714D02*
X141142857Y-69285714D01*
X141380952Y-68952380D02*
X141380952Y-69809523D01*
X141333333Y-69904761D01*
X141238095Y-69952380D01*
X141142857Y-69952380D01*
X140809523Y-69952380D02*
X140809523Y-69285714D01*
X140809523Y-68952380D02*
X140857142Y-69000000D01*
X140809523Y-69047619D01*
X140761904Y-69000000D01*
X140809523Y-68952380D01*
X140809523Y-69047619D01*
X140190476Y-69952380D02*
X140285714Y-69904761D01*
X140333333Y-69857142D01*
X140380952Y-69761904D01*
X140380952Y-69476190D01*
X140333333Y-69380952D01*
X140285714Y-69333333D01*
X140190476Y-69285714D01*
X140047619Y-69285714D01*
X139952380Y-69333333D01*
X139904761Y-69380952D01*
X139857142Y-69476190D01*
X139857142Y-69761904D01*
X139904761Y-69857142D01*
X139952380Y-69904761D01*
X140047619Y-69952380D01*
X140190476Y-69952380D01*
X139428571Y-69285714D02*
X139428571Y-69952380D01*
X139428571Y-69380952D02*
X139380952Y-69333333D01*
X139285714Y-69285714D01*
X139142857Y-69285714D01*
X139047619Y-69333333D01*
X139000000Y-69428571D01*
X139000000Y-69952380D01*
M02*
