M48
METRIC
T1C1.300
T2C6.400
%
G90
G05
T1
X133.0Y-53.0
X133.0Y-56.5
X135.0Y-61.9
X135.0Y-67.0
X138.1Y-53.0
X138.1Y-56.5
X138.5Y-61.9
X138.5Y-67.0
X142.0Y-61.9
X142.0Y-67.0
X145.5Y-61.9
X145.5Y-67.0
X148.9Y-51.5
X148.9Y-55.0
X149.0Y-61.9
X149.0Y-67.0
X152.5Y-61.9
X152.5Y-67.0
X154.0Y-51.5
X154.0Y-55.0
T2
X126.0Y-66.0
X160.0Y-66.0
T0
M30
