G04 #@! TF.GenerationSoftware,KiCad,Pcbnew,(5.1.4)-1*
G04 #@! TF.CreationDate,2020-01-14T01:58:37-05:00*
G04 #@! TF.ProjectId,CANJunction,43414e4a-756e-4637-9469-6f6e2e6b6963,rev?*
G04 #@! TF.SameCoordinates,Original*
G04 #@! TF.FileFunction,Soldermask,Top*
G04 #@! TF.FilePolarity,Negative*
%FSLAX46Y46*%
G04 Gerber Fmt 4.6, Leading zero omitted, Abs format (unit mm)*
G04 Created by KiCad (PCBNEW (5.1.4)-1) date 2020-01-14 01:58:37*
%MOMM*%
%LPD*%
G04 APERTURE LIST*
%ADD10C,0.200000*%
%ADD11C,0.010000*%
%ADD12C,0.100000*%
G04 APERTURE END LIST*
D10*
X155238095Y-60828571D02*
X154904761Y-60828571D01*
X154904761Y-61352380D02*
X154904761Y-60352380D01*
X155380952Y-60352380D01*
X156333333Y-61352380D02*
X156000000Y-60876190D01*
X155761904Y-61352380D02*
X155761904Y-60352380D01*
X156142857Y-60352380D01*
X156238095Y-60400000D01*
X156285714Y-60447619D01*
X156333333Y-60542857D01*
X156333333Y-60685714D01*
X156285714Y-60780952D01*
X156238095Y-60828571D01*
X156142857Y-60876190D01*
X155761904Y-60876190D01*
X157333333Y-61257142D02*
X157285714Y-61304761D01*
X157142857Y-61352380D01*
X157047619Y-61352380D01*
X156904761Y-61304761D01*
X156809523Y-61209523D01*
X156761904Y-61114285D01*
X156714285Y-60923809D01*
X156714285Y-60780952D01*
X156761904Y-60590476D01*
X156809523Y-60495238D01*
X156904761Y-60400000D01*
X157047619Y-60352380D01*
X157142857Y-60352380D01*
X157285714Y-60400000D01*
X157333333Y-60447619D01*
X157714285Y-60447619D02*
X157761904Y-60400000D01*
X157857142Y-60352380D01*
X158095238Y-60352380D01*
X158190476Y-60400000D01*
X158238095Y-60447619D01*
X158285714Y-60542857D01*
X158285714Y-60638095D01*
X158238095Y-60780952D01*
X157666666Y-61352380D01*
X158285714Y-61352380D01*
X159238095Y-61352380D02*
X158666666Y-61352380D01*
X158952380Y-61352380D02*
X158952380Y-60352380D01*
X158857142Y-60495238D01*
X158761904Y-60590476D01*
X158666666Y-60638095D01*
X160095238Y-60352380D02*
X159904761Y-60352380D01*
X159809523Y-60400000D01*
X159761904Y-60447619D01*
X159666666Y-60590476D01*
X159619047Y-60780952D01*
X159619047Y-61161904D01*
X159666666Y-61257142D01*
X159714285Y-61304761D01*
X159809523Y-61352380D01*
X160000000Y-61352380D01*
X160095238Y-61304761D01*
X160142857Y-61257142D01*
X160190476Y-61161904D01*
X160190476Y-60923809D01*
X160142857Y-60828571D01*
X160095238Y-60780952D01*
X160000000Y-60733333D01*
X159809523Y-60733333D01*
X159714285Y-60780952D01*
X159666666Y-60828571D01*
X159619047Y-60923809D01*
X160761904Y-60780952D02*
X160666666Y-60733333D01*
X160619047Y-60685714D01*
X160571428Y-60590476D01*
X160571428Y-60542857D01*
X160619047Y-60447619D01*
X160666666Y-60400000D01*
X160761904Y-60352380D01*
X160952380Y-60352380D01*
X161047619Y-60400000D01*
X161095238Y-60447619D01*
X161142857Y-60542857D01*
X161142857Y-60590476D01*
X161095238Y-60685714D01*
X161047619Y-60733333D01*
X160952380Y-60780952D01*
X160761904Y-60780952D01*
X160666666Y-60828571D01*
X160619047Y-60876190D01*
X160571428Y-60971428D01*
X160571428Y-61161904D01*
X160619047Y-61257142D01*
X160666666Y-61304761D01*
X160761904Y-61352380D01*
X160952380Y-61352380D01*
X161047619Y-61304761D01*
X161095238Y-61257142D01*
X161142857Y-61161904D01*
X161142857Y-60971428D01*
X161095238Y-60876190D01*
X161047619Y-60828571D01*
X160952380Y-60780952D01*
D11*
G36*
X144537167Y-52071175D02*
G01*
X144774694Y-52257234D01*
X144989016Y-52504581D01*
X145162353Y-52790011D01*
X145250480Y-53002124D01*
X145295452Y-53203604D01*
X145316737Y-53446728D01*
X145314147Y-53698005D01*
X145287493Y-53923946D01*
X145256381Y-54043614D01*
X145216360Y-54177972D01*
X145213157Y-54238159D01*
X145241469Y-54221689D01*
X145295994Y-54126079D01*
X145320251Y-54073545D01*
X145428344Y-53758881D01*
X145460796Y-53470023D01*
X145427994Y-53230363D01*
X145398676Y-53103525D01*
X145384802Y-53014443D01*
X145386695Y-52988194D01*
X145411643Y-53014288D01*
X145460420Y-53099156D01*
X145520807Y-53220970D01*
X145573786Y-53343296D01*
X145608747Y-53455763D01*
X145629901Y-53582633D01*
X145641456Y-53748172D01*
X145647104Y-53949002D01*
X145652695Y-54143359D01*
X145660802Y-54306497D01*
X145670280Y-54419807D01*
X145678768Y-54463404D01*
X145683045Y-54535225D01*
X145653784Y-54660048D01*
X145599066Y-54817145D01*
X145526972Y-54985786D01*
X145445581Y-55145241D01*
X145362973Y-55274782D01*
X145361989Y-55276095D01*
X145132649Y-55536323D01*
X144866618Y-55746951D01*
X144540471Y-55926494D01*
X144537167Y-55928037D01*
X144103810Y-56091618D01*
X143683865Y-56172195D01*
X143278107Y-56169640D01*
X143171941Y-56154825D01*
X142941112Y-56098087D01*
X142677275Y-56005192D01*
X142415934Y-55889733D01*
X142255583Y-55803993D01*
X142051154Y-55656530D01*
X141844613Y-55460756D01*
X141661733Y-55244148D01*
X141528290Y-55034180D01*
X141522451Y-55022462D01*
X141472947Y-54913581D01*
X141439137Y-54812053D01*
X141417456Y-54696593D01*
X141404338Y-54545916D01*
X141396217Y-54338736D01*
X141394070Y-54256180D01*
X141401209Y-53856659D01*
X141445118Y-53524242D01*
X141527705Y-53248881D01*
X141619315Y-53068667D01*
X141684973Y-52962833D01*
X141655441Y-53068667D01*
X141614327Y-53305646D01*
X141611780Y-53559420D01*
X141644710Y-53804658D01*
X141710029Y-54016027D01*
X141787091Y-54148167D01*
X141855912Y-54232833D01*
X141827493Y-54148167D01*
X141759085Y-53854723D01*
X141735604Y-53539092D01*
X141759632Y-53250670D01*
X141846933Y-52931207D01*
X141989751Y-52647363D01*
X142199792Y-52377995D01*
X142299786Y-52274916D01*
X142422852Y-52160273D01*
X142526274Y-52074540D01*
X142601491Y-52022173D01*
X142639944Y-52007626D01*
X142633073Y-52035353D01*
X142572318Y-52109808D01*
X142529205Y-52155537D01*
X142389639Y-52357705D01*
X142317638Y-52598254D01*
X142312369Y-52865665D01*
X142373002Y-53148416D01*
X142498703Y-53434986D01*
X142637002Y-53647925D01*
X142701789Y-53737648D01*
X142728983Y-53803105D01*
X142719035Y-53873897D01*
X142672396Y-53979627D01*
X142642969Y-54039551D01*
X142569344Y-54257496D01*
X142531746Y-54518130D01*
X142531133Y-54788849D01*
X142568462Y-55037046D01*
X142609982Y-55162783D01*
X142733096Y-55389549D01*
X142893113Y-55597988D01*
X143075093Y-55774694D01*
X143264099Y-55906261D01*
X143445192Y-55979283D01*
X143531380Y-55989667D01*
X143696585Y-55952815D01*
X143879808Y-55850828D01*
X144066104Y-55696556D01*
X144240526Y-55502848D01*
X144388129Y-55282556D01*
X144417642Y-55227667D01*
X144481592Y-55088717D01*
X144517959Y-54961973D01*
X144533964Y-54812849D01*
X144536960Y-54656167D01*
X144531247Y-54457732D01*
X144508985Y-54306222D01*
X144462779Y-54164391D01*
X144420092Y-54067605D01*
X144358337Y-53931374D01*
X144330482Y-53846534D01*
X144333566Y-53788255D01*
X144364627Y-53731707D01*
X144377793Y-53712999D01*
X144588179Y-53379092D01*
X144720721Y-53074157D01*
X144775742Y-52794631D01*
X144753563Y-52536951D01*
X144654506Y-52297552D01*
X144521750Y-52118612D01*
X144410167Y-51994057D01*
X144537167Y-52071175D01*
X144537167Y-52071175D01*
G37*
X144537167Y-52071175D02*
X144774694Y-52257234D01*
X144989016Y-52504581D01*
X145162353Y-52790011D01*
X145250480Y-53002124D01*
X145295452Y-53203604D01*
X145316737Y-53446728D01*
X145314147Y-53698005D01*
X145287493Y-53923946D01*
X145256381Y-54043614D01*
X145216360Y-54177972D01*
X145213157Y-54238159D01*
X145241469Y-54221689D01*
X145295994Y-54126079D01*
X145320251Y-54073545D01*
X145428344Y-53758881D01*
X145460796Y-53470023D01*
X145427994Y-53230363D01*
X145398676Y-53103525D01*
X145384802Y-53014443D01*
X145386695Y-52988194D01*
X145411643Y-53014288D01*
X145460420Y-53099156D01*
X145520807Y-53220970D01*
X145573786Y-53343296D01*
X145608747Y-53455763D01*
X145629901Y-53582633D01*
X145641456Y-53748172D01*
X145647104Y-53949002D01*
X145652695Y-54143359D01*
X145660802Y-54306497D01*
X145670280Y-54419807D01*
X145678768Y-54463404D01*
X145683045Y-54535225D01*
X145653784Y-54660048D01*
X145599066Y-54817145D01*
X145526972Y-54985786D01*
X145445581Y-55145241D01*
X145362973Y-55274782D01*
X145361989Y-55276095D01*
X145132649Y-55536323D01*
X144866618Y-55746951D01*
X144540471Y-55926494D01*
X144537167Y-55928037D01*
X144103810Y-56091618D01*
X143683865Y-56172195D01*
X143278107Y-56169640D01*
X143171941Y-56154825D01*
X142941112Y-56098087D01*
X142677275Y-56005192D01*
X142415934Y-55889733D01*
X142255583Y-55803993D01*
X142051154Y-55656530D01*
X141844613Y-55460756D01*
X141661733Y-55244148D01*
X141528290Y-55034180D01*
X141522451Y-55022462D01*
X141472947Y-54913581D01*
X141439137Y-54812053D01*
X141417456Y-54696593D01*
X141404338Y-54545916D01*
X141396217Y-54338736D01*
X141394070Y-54256180D01*
X141401209Y-53856659D01*
X141445118Y-53524242D01*
X141527705Y-53248881D01*
X141619315Y-53068667D01*
X141684973Y-52962833D01*
X141655441Y-53068667D01*
X141614327Y-53305646D01*
X141611780Y-53559420D01*
X141644710Y-53804658D01*
X141710029Y-54016027D01*
X141787091Y-54148167D01*
X141855912Y-54232833D01*
X141827493Y-54148167D01*
X141759085Y-53854723D01*
X141735604Y-53539092D01*
X141759632Y-53250670D01*
X141846933Y-52931207D01*
X141989751Y-52647363D01*
X142199792Y-52377995D01*
X142299786Y-52274916D01*
X142422852Y-52160273D01*
X142526274Y-52074540D01*
X142601491Y-52022173D01*
X142639944Y-52007626D01*
X142633073Y-52035353D01*
X142572318Y-52109808D01*
X142529205Y-52155537D01*
X142389639Y-52357705D01*
X142317638Y-52598254D01*
X142312369Y-52865665D01*
X142373002Y-53148416D01*
X142498703Y-53434986D01*
X142637002Y-53647925D01*
X142701789Y-53737648D01*
X142728983Y-53803105D01*
X142719035Y-53873897D01*
X142672396Y-53979627D01*
X142642969Y-54039551D01*
X142569344Y-54257496D01*
X142531746Y-54518130D01*
X142531133Y-54788849D01*
X142568462Y-55037046D01*
X142609982Y-55162783D01*
X142733096Y-55389549D01*
X142893113Y-55597988D01*
X143075093Y-55774694D01*
X143264099Y-55906261D01*
X143445192Y-55979283D01*
X143531380Y-55989667D01*
X143696585Y-55952815D01*
X143879808Y-55850828D01*
X144066104Y-55696556D01*
X144240526Y-55502848D01*
X144388129Y-55282556D01*
X144417642Y-55227667D01*
X144481592Y-55088717D01*
X144517959Y-54961973D01*
X144533964Y-54812849D01*
X144536960Y-54656167D01*
X144531247Y-54457732D01*
X144508985Y-54306222D01*
X144462779Y-54164391D01*
X144420092Y-54067605D01*
X144358337Y-53931374D01*
X144330482Y-53846534D01*
X144333566Y-53788255D01*
X144364627Y-53731707D01*
X144377793Y-53712999D01*
X144588179Y-53379092D01*
X144720721Y-53074157D01*
X144775742Y-52794631D01*
X144753563Y-52536951D01*
X144654506Y-52297552D01*
X144521750Y-52118612D01*
X144410167Y-51994057D01*
X144537167Y-52071175D01*
D12*
G36*
X152894072Y-65700918D02*
G01*
X153139939Y-65802759D01*
X153361212Y-65950610D01*
X153549390Y-66138788D01*
X153697241Y-66360061D01*
X153799082Y-66605928D01*
X153851000Y-66866938D01*
X153851000Y-67133062D01*
X153799082Y-67394072D01*
X153697241Y-67639939D01*
X153549390Y-67861212D01*
X153361212Y-68049390D01*
X153139939Y-68197241D01*
X153139938Y-68197242D01*
X153139937Y-68197242D01*
X152894072Y-68299082D01*
X152633063Y-68351000D01*
X152366937Y-68351000D01*
X152105928Y-68299082D01*
X151860063Y-68197242D01*
X151860062Y-68197242D01*
X151860061Y-68197241D01*
X151638788Y-68049390D01*
X151450610Y-67861212D01*
X151302759Y-67639939D01*
X151200918Y-67394072D01*
X151149000Y-67133062D01*
X151149000Y-66866938D01*
X151200918Y-66605928D01*
X151302759Y-66360061D01*
X151450610Y-66138788D01*
X151638788Y-65950610D01*
X151860061Y-65802759D01*
X152105928Y-65700918D01*
X152366937Y-65649000D01*
X152633063Y-65649000D01*
X152894072Y-65700918D01*
X152894072Y-65700918D01*
G37*
G36*
X149394072Y-65700918D02*
G01*
X149639939Y-65802759D01*
X149861212Y-65950610D01*
X150049390Y-66138788D01*
X150197241Y-66360061D01*
X150299082Y-66605928D01*
X150351000Y-66866938D01*
X150351000Y-67133062D01*
X150299082Y-67394072D01*
X150197241Y-67639939D01*
X150049390Y-67861212D01*
X149861212Y-68049390D01*
X149639939Y-68197241D01*
X149639938Y-68197242D01*
X149639937Y-68197242D01*
X149394072Y-68299082D01*
X149133063Y-68351000D01*
X148866937Y-68351000D01*
X148605928Y-68299082D01*
X148360063Y-68197242D01*
X148360062Y-68197242D01*
X148360061Y-68197241D01*
X148138788Y-68049390D01*
X147950610Y-67861212D01*
X147802759Y-67639939D01*
X147700918Y-67394072D01*
X147649000Y-67133062D01*
X147649000Y-66866938D01*
X147700918Y-66605928D01*
X147802759Y-66360061D01*
X147950610Y-66138788D01*
X148138788Y-65950610D01*
X148360061Y-65802759D01*
X148605928Y-65700918D01*
X148866937Y-65649000D01*
X149133063Y-65649000D01*
X149394072Y-65700918D01*
X149394072Y-65700918D01*
G37*
G36*
X142394072Y-65700918D02*
G01*
X142639939Y-65802759D01*
X142861212Y-65950610D01*
X143049390Y-66138788D01*
X143197241Y-66360061D01*
X143299082Y-66605928D01*
X143351000Y-66866938D01*
X143351000Y-67133062D01*
X143299082Y-67394072D01*
X143197241Y-67639939D01*
X143049390Y-67861212D01*
X142861212Y-68049390D01*
X142639939Y-68197241D01*
X142639938Y-68197242D01*
X142639937Y-68197242D01*
X142394072Y-68299082D01*
X142133063Y-68351000D01*
X141866937Y-68351000D01*
X141605928Y-68299082D01*
X141360063Y-68197242D01*
X141360062Y-68197242D01*
X141360061Y-68197241D01*
X141138788Y-68049390D01*
X140950610Y-67861212D01*
X140802759Y-67639939D01*
X140700918Y-67394072D01*
X140649000Y-67133062D01*
X140649000Y-66866938D01*
X140700918Y-66605928D01*
X140802759Y-66360061D01*
X140950610Y-66138788D01*
X141138788Y-65950610D01*
X141360061Y-65802759D01*
X141605928Y-65700918D01*
X141866937Y-65649000D01*
X142133063Y-65649000D01*
X142394072Y-65700918D01*
X142394072Y-65700918D01*
G37*
G36*
X145894072Y-65700918D02*
G01*
X146139939Y-65802759D01*
X146361212Y-65950610D01*
X146549390Y-66138788D01*
X146697241Y-66360061D01*
X146799082Y-66605928D01*
X146851000Y-66866938D01*
X146851000Y-67133062D01*
X146799082Y-67394072D01*
X146697241Y-67639939D01*
X146549390Y-67861212D01*
X146361212Y-68049390D01*
X146139939Y-68197241D01*
X146139938Y-68197242D01*
X146139937Y-68197242D01*
X145894072Y-68299082D01*
X145633063Y-68351000D01*
X145366937Y-68351000D01*
X145105928Y-68299082D01*
X144860063Y-68197242D01*
X144860062Y-68197242D01*
X144860061Y-68197241D01*
X144638788Y-68049390D01*
X144450610Y-67861212D01*
X144302759Y-67639939D01*
X144200918Y-67394072D01*
X144149000Y-67133062D01*
X144149000Y-66866938D01*
X144200918Y-66605928D01*
X144302759Y-66360061D01*
X144450610Y-66138788D01*
X144638788Y-65950610D01*
X144860061Y-65802759D01*
X145105928Y-65700918D01*
X145366937Y-65649000D01*
X145633063Y-65649000D01*
X145894072Y-65700918D01*
X145894072Y-65700918D01*
G37*
G36*
X135394072Y-65700918D02*
G01*
X135639939Y-65802759D01*
X135861212Y-65950610D01*
X136049390Y-66138788D01*
X136197241Y-66360061D01*
X136299082Y-66605928D01*
X136351000Y-66866938D01*
X136351000Y-67133062D01*
X136299082Y-67394072D01*
X136197241Y-67639939D01*
X136049390Y-67861212D01*
X135861212Y-68049390D01*
X135639939Y-68197241D01*
X135639938Y-68197242D01*
X135639937Y-68197242D01*
X135394072Y-68299082D01*
X135133063Y-68351000D01*
X134866937Y-68351000D01*
X134605928Y-68299082D01*
X134360063Y-68197242D01*
X134360062Y-68197242D01*
X134360061Y-68197241D01*
X134138788Y-68049390D01*
X133950610Y-67861212D01*
X133802759Y-67639939D01*
X133700918Y-67394072D01*
X133649000Y-67133062D01*
X133649000Y-66866938D01*
X133700918Y-66605928D01*
X133802759Y-66360061D01*
X133950610Y-66138788D01*
X134138788Y-65950610D01*
X134360061Y-65802759D01*
X134605928Y-65700918D01*
X134866937Y-65649000D01*
X135133063Y-65649000D01*
X135394072Y-65700918D01*
X135394072Y-65700918D01*
G37*
G36*
X138894072Y-65700918D02*
G01*
X139139939Y-65802759D01*
X139361212Y-65950610D01*
X139549390Y-66138788D01*
X139697241Y-66360061D01*
X139799082Y-66605928D01*
X139851000Y-66866938D01*
X139851000Y-67133062D01*
X139799082Y-67394072D01*
X139697241Y-67639939D01*
X139549390Y-67861212D01*
X139361212Y-68049390D01*
X139139939Y-68197241D01*
X139139938Y-68197242D01*
X139139937Y-68197242D01*
X138894072Y-68299082D01*
X138633063Y-68351000D01*
X138366937Y-68351000D01*
X138105928Y-68299082D01*
X137860063Y-68197242D01*
X137860062Y-68197242D01*
X137860061Y-68197241D01*
X137638788Y-68049390D01*
X137450610Y-67861212D01*
X137302759Y-67639939D01*
X137200918Y-67394072D01*
X137149000Y-67133062D01*
X137149000Y-66866938D01*
X137200918Y-66605928D01*
X137302759Y-66360061D01*
X137450610Y-66138788D01*
X137638788Y-65950610D01*
X137860061Y-65802759D01*
X138105928Y-65700918D01*
X138366937Y-65649000D01*
X138633063Y-65649000D01*
X138894072Y-65700918D01*
X138894072Y-65700918D01*
G37*
G36*
X152894072Y-60600918D02*
G01*
X153139939Y-60702759D01*
X153361212Y-60850610D01*
X153549390Y-61038788D01*
X153697241Y-61260061D01*
X153799082Y-61505928D01*
X153851000Y-61766938D01*
X153851000Y-62033062D01*
X153799082Y-62294072D01*
X153697241Y-62539939D01*
X153549390Y-62761212D01*
X153361212Y-62949390D01*
X153139939Y-63097241D01*
X153139938Y-63097242D01*
X153139937Y-63097242D01*
X152894072Y-63199082D01*
X152633063Y-63251000D01*
X152366937Y-63251000D01*
X152105928Y-63199082D01*
X151860063Y-63097242D01*
X151860062Y-63097242D01*
X151860061Y-63097241D01*
X151638788Y-62949390D01*
X151450610Y-62761212D01*
X151302759Y-62539939D01*
X151200918Y-62294072D01*
X151149000Y-62033062D01*
X151149000Y-61766938D01*
X151200918Y-61505928D01*
X151302759Y-61260061D01*
X151450610Y-61038788D01*
X151638788Y-60850610D01*
X151860061Y-60702759D01*
X152105928Y-60600918D01*
X152366937Y-60549000D01*
X152633063Y-60549000D01*
X152894072Y-60600918D01*
X152894072Y-60600918D01*
G37*
G36*
X149394072Y-60600918D02*
G01*
X149639939Y-60702759D01*
X149861212Y-60850610D01*
X150049390Y-61038788D01*
X150197241Y-61260061D01*
X150299082Y-61505928D01*
X150351000Y-61766938D01*
X150351000Y-62033062D01*
X150299082Y-62294072D01*
X150197241Y-62539939D01*
X150049390Y-62761212D01*
X149861212Y-62949390D01*
X149639939Y-63097241D01*
X149639938Y-63097242D01*
X149639937Y-63097242D01*
X149394072Y-63199082D01*
X149133063Y-63251000D01*
X148866937Y-63251000D01*
X148605928Y-63199082D01*
X148360063Y-63097242D01*
X148360062Y-63097242D01*
X148360061Y-63097241D01*
X148138788Y-62949390D01*
X147950610Y-62761212D01*
X147802759Y-62539939D01*
X147700918Y-62294072D01*
X147649000Y-62033062D01*
X147649000Y-61766938D01*
X147700918Y-61505928D01*
X147802759Y-61260061D01*
X147950610Y-61038788D01*
X148138788Y-60850610D01*
X148360061Y-60702759D01*
X148605928Y-60600918D01*
X148866937Y-60549000D01*
X149133063Y-60549000D01*
X149394072Y-60600918D01*
X149394072Y-60600918D01*
G37*
G36*
X142394072Y-60600918D02*
G01*
X142639939Y-60702759D01*
X142861212Y-60850610D01*
X143049390Y-61038788D01*
X143197241Y-61260061D01*
X143299082Y-61505928D01*
X143351000Y-61766938D01*
X143351000Y-62033062D01*
X143299082Y-62294072D01*
X143197241Y-62539939D01*
X143049390Y-62761212D01*
X142861212Y-62949390D01*
X142639939Y-63097241D01*
X142639938Y-63097242D01*
X142639937Y-63097242D01*
X142394072Y-63199082D01*
X142133063Y-63251000D01*
X141866937Y-63251000D01*
X141605928Y-63199082D01*
X141360063Y-63097242D01*
X141360062Y-63097242D01*
X141360061Y-63097241D01*
X141138788Y-62949390D01*
X140950610Y-62761212D01*
X140802759Y-62539939D01*
X140700918Y-62294072D01*
X140649000Y-62033062D01*
X140649000Y-61766938D01*
X140700918Y-61505928D01*
X140802759Y-61260061D01*
X140950610Y-61038788D01*
X141138788Y-60850610D01*
X141360061Y-60702759D01*
X141605928Y-60600918D01*
X141866937Y-60549000D01*
X142133063Y-60549000D01*
X142394072Y-60600918D01*
X142394072Y-60600918D01*
G37*
G36*
X145894072Y-60600918D02*
G01*
X146139939Y-60702759D01*
X146361212Y-60850610D01*
X146549390Y-61038788D01*
X146697241Y-61260061D01*
X146799082Y-61505928D01*
X146851000Y-61766938D01*
X146851000Y-62033062D01*
X146799082Y-62294072D01*
X146697241Y-62539939D01*
X146549390Y-62761212D01*
X146361212Y-62949390D01*
X146139939Y-63097241D01*
X146139938Y-63097242D01*
X146139937Y-63097242D01*
X145894072Y-63199082D01*
X145633063Y-63251000D01*
X145366937Y-63251000D01*
X145105928Y-63199082D01*
X144860063Y-63097242D01*
X144860062Y-63097242D01*
X144860061Y-63097241D01*
X144638788Y-62949390D01*
X144450610Y-62761212D01*
X144302759Y-62539939D01*
X144200918Y-62294072D01*
X144149000Y-62033062D01*
X144149000Y-61766938D01*
X144200918Y-61505928D01*
X144302759Y-61260061D01*
X144450610Y-61038788D01*
X144638788Y-60850610D01*
X144860061Y-60702759D01*
X145105928Y-60600918D01*
X145366937Y-60549000D01*
X145633063Y-60549000D01*
X145894072Y-60600918D01*
X145894072Y-60600918D01*
G37*
G36*
X135394072Y-60600918D02*
G01*
X135639939Y-60702759D01*
X135861212Y-60850610D01*
X136049390Y-61038788D01*
X136197241Y-61260061D01*
X136299082Y-61505928D01*
X136351000Y-61766938D01*
X136351000Y-62033062D01*
X136299082Y-62294072D01*
X136197241Y-62539939D01*
X136049390Y-62761212D01*
X135861212Y-62949390D01*
X135639939Y-63097241D01*
X135639938Y-63097242D01*
X135639937Y-63097242D01*
X135394072Y-63199082D01*
X135133063Y-63251000D01*
X134866937Y-63251000D01*
X134605928Y-63199082D01*
X134360063Y-63097242D01*
X134360062Y-63097242D01*
X134360061Y-63097241D01*
X134138788Y-62949390D01*
X133950610Y-62761212D01*
X133802759Y-62539939D01*
X133700918Y-62294072D01*
X133649000Y-62033062D01*
X133649000Y-61766938D01*
X133700918Y-61505928D01*
X133802759Y-61260061D01*
X133950610Y-61038788D01*
X134138788Y-60850610D01*
X134360061Y-60702759D01*
X134605928Y-60600918D01*
X134866937Y-60549000D01*
X135133063Y-60549000D01*
X135394072Y-60600918D01*
X135394072Y-60600918D01*
G37*
G36*
X138894072Y-60600918D02*
G01*
X139139939Y-60702759D01*
X139361212Y-60850610D01*
X139549390Y-61038788D01*
X139697241Y-61260061D01*
X139799082Y-61505928D01*
X139851000Y-61766938D01*
X139851000Y-62033062D01*
X139799082Y-62294072D01*
X139697241Y-62539939D01*
X139549390Y-62761212D01*
X139361212Y-62949390D01*
X139139939Y-63097241D01*
X139139938Y-63097242D01*
X139139937Y-63097242D01*
X138894072Y-63199082D01*
X138633063Y-63251000D01*
X138366937Y-63251000D01*
X138105928Y-63199082D01*
X137860063Y-63097242D01*
X137860062Y-63097242D01*
X137860061Y-63097241D01*
X137638788Y-62949390D01*
X137450610Y-62761212D01*
X137302759Y-62539939D01*
X137200918Y-62294072D01*
X137149000Y-62033062D01*
X137149000Y-61766938D01*
X137200918Y-61505928D01*
X137302759Y-61260061D01*
X137450610Y-61038788D01*
X137638788Y-60850610D01*
X137860061Y-60702759D01*
X138105928Y-60600918D01*
X138366937Y-60549000D01*
X138633063Y-60549000D01*
X138894072Y-60600918D01*
X138894072Y-60600918D01*
G37*
G36*
X133394072Y-55200918D02*
G01*
X133639939Y-55302759D01*
X133751328Y-55377187D01*
X133861211Y-55450609D01*
X134049391Y-55638789D01*
X134197242Y-55860063D01*
X134299082Y-56105928D01*
X134317246Y-56197242D01*
X134351000Y-56366938D01*
X134351000Y-56633062D01*
X134299082Y-56894072D01*
X134197241Y-57139939D01*
X134049390Y-57361212D01*
X133861212Y-57549390D01*
X133639939Y-57697241D01*
X133639938Y-57697242D01*
X133639937Y-57697242D01*
X133394072Y-57799082D01*
X133133063Y-57851000D01*
X132866937Y-57851000D01*
X132605928Y-57799082D01*
X132360063Y-57697242D01*
X132360062Y-57697242D01*
X132360061Y-57697241D01*
X132138788Y-57549390D01*
X131950610Y-57361212D01*
X131802759Y-57139939D01*
X131700918Y-56894072D01*
X131649000Y-56633062D01*
X131649000Y-56366938D01*
X131682755Y-56197242D01*
X131700918Y-56105928D01*
X131802758Y-55860063D01*
X131950609Y-55638789D01*
X132138789Y-55450609D01*
X132248672Y-55377187D01*
X132360061Y-55302759D01*
X132605928Y-55200918D01*
X132866937Y-55149000D01*
X133133063Y-55149000D01*
X133394072Y-55200918D01*
X133394072Y-55200918D01*
G37*
G36*
X138494072Y-55200918D02*
G01*
X138739939Y-55302759D01*
X138851328Y-55377187D01*
X138961211Y-55450609D01*
X139149391Y-55638789D01*
X139297242Y-55860063D01*
X139399082Y-56105928D01*
X139417246Y-56197242D01*
X139451000Y-56366938D01*
X139451000Y-56633062D01*
X139399082Y-56894072D01*
X139297241Y-57139939D01*
X139149390Y-57361212D01*
X138961212Y-57549390D01*
X138739939Y-57697241D01*
X138739938Y-57697242D01*
X138739937Y-57697242D01*
X138494072Y-57799082D01*
X138233063Y-57851000D01*
X137966937Y-57851000D01*
X137705928Y-57799082D01*
X137460063Y-57697242D01*
X137460062Y-57697242D01*
X137460061Y-57697241D01*
X137238788Y-57549390D01*
X137050610Y-57361212D01*
X136902759Y-57139939D01*
X136800918Y-56894072D01*
X136749000Y-56633062D01*
X136749000Y-56366938D01*
X136782755Y-56197242D01*
X136800918Y-56105928D01*
X136902758Y-55860063D01*
X137050609Y-55638789D01*
X137238789Y-55450609D01*
X137348672Y-55377187D01*
X137460061Y-55302759D01*
X137705928Y-55200918D01*
X137966937Y-55149000D01*
X138233063Y-55149000D01*
X138494072Y-55200918D01*
X138494072Y-55200918D01*
G37*
G36*
X149294072Y-53700918D02*
G01*
X149539939Y-53802759D01*
X149761212Y-53950610D01*
X149949390Y-54138788D01*
X150091187Y-54351000D01*
X150097242Y-54360063D01*
X150199082Y-54605928D01*
X150251000Y-54866937D01*
X150251000Y-55133063D01*
X150199082Y-55394072D01*
X150097718Y-55638789D01*
X150097241Y-55639939D01*
X149949390Y-55861212D01*
X149761212Y-56049390D01*
X149539939Y-56197241D01*
X149539938Y-56197242D01*
X149539937Y-56197242D01*
X149294072Y-56299082D01*
X149033063Y-56351000D01*
X148766937Y-56351000D01*
X148505928Y-56299082D01*
X148260063Y-56197242D01*
X148260062Y-56197242D01*
X148260061Y-56197241D01*
X148038788Y-56049390D01*
X147850610Y-55861212D01*
X147702759Y-55639939D01*
X147702283Y-55638789D01*
X147600918Y-55394072D01*
X147549000Y-55133063D01*
X147549000Y-54866937D01*
X147600918Y-54605928D01*
X147702758Y-54360063D01*
X147708814Y-54351000D01*
X147850610Y-54138788D01*
X148038788Y-53950610D01*
X148260061Y-53802759D01*
X148505928Y-53700918D01*
X148766937Y-53649000D01*
X149033063Y-53649000D01*
X149294072Y-53700918D01*
X149294072Y-53700918D01*
G37*
G36*
X154394072Y-53700918D02*
G01*
X154639939Y-53802759D01*
X154861212Y-53950610D01*
X155049390Y-54138788D01*
X155191187Y-54351000D01*
X155197242Y-54360063D01*
X155299082Y-54605928D01*
X155351000Y-54866937D01*
X155351000Y-55133063D01*
X155299082Y-55394072D01*
X155197718Y-55638789D01*
X155197241Y-55639939D01*
X155049390Y-55861212D01*
X154861212Y-56049390D01*
X154639939Y-56197241D01*
X154639938Y-56197242D01*
X154639937Y-56197242D01*
X154394072Y-56299082D01*
X154133063Y-56351000D01*
X153866937Y-56351000D01*
X153605928Y-56299082D01*
X153360063Y-56197242D01*
X153360062Y-56197242D01*
X153360061Y-56197241D01*
X153138788Y-56049390D01*
X152950610Y-55861212D01*
X152802759Y-55639939D01*
X152802283Y-55638789D01*
X152700918Y-55394072D01*
X152649000Y-55133063D01*
X152649000Y-54866937D01*
X152700918Y-54605928D01*
X152802758Y-54360063D01*
X152808814Y-54351000D01*
X152950610Y-54138788D01*
X153138788Y-53950610D01*
X153360061Y-53802759D01*
X153605928Y-53700918D01*
X153866937Y-53649000D01*
X154133063Y-53649000D01*
X154394072Y-53700918D01*
X154394072Y-53700918D01*
G37*
G36*
X138494072Y-51700918D02*
G01*
X138739939Y-51802759D01*
X138851328Y-51877187D01*
X138961211Y-51950609D01*
X139149391Y-52138789D01*
X139297242Y-52360063D01*
X139399082Y-52605928D01*
X139417246Y-52697242D01*
X139451000Y-52866938D01*
X139451000Y-53133062D01*
X139399082Y-53394072D01*
X139297241Y-53639939D01*
X139149390Y-53861212D01*
X138961212Y-54049390D01*
X138739939Y-54197241D01*
X138739938Y-54197242D01*
X138739937Y-54197242D01*
X138494072Y-54299082D01*
X138233063Y-54351000D01*
X137966937Y-54351000D01*
X137705928Y-54299082D01*
X137460063Y-54197242D01*
X137460062Y-54197242D01*
X137460061Y-54197241D01*
X137238788Y-54049390D01*
X137050610Y-53861212D01*
X136902759Y-53639939D01*
X136800918Y-53394072D01*
X136749000Y-53133062D01*
X136749000Y-52866938D01*
X136782755Y-52697242D01*
X136800918Y-52605928D01*
X136902758Y-52360063D01*
X137050609Y-52138789D01*
X137238789Y-51950609D01*
X137348672Y-51877187D01*
X137460061Y-51802759D01*
X137705928Y-51700918D01*
X137966937Y-51649000D01*
X138233063Y-51649000D01*
X138494072Y-51700918D01*
X138494072Y-51700918D01*
G37*
G36*
X133394072Y-51700918D02*
G01*
X133639939Y-51802759D01*
X133751328Y-51877187D01*
X133861211Y-51950609D01*
X134049391Y-52138789D01*
X134197242Y-52360063D01*
X134299082Y-52605928D01*
X134317246Y-52697242D01*
X134351000Y-52866938D01*
X134351000Y-53133062D01*
X134299082Y-53394072D01*
X134197241Y-53639939D01*
X134049390Y-53861212D01*
X133861212Y-54049390D01*
X133639939Y-54197241D01*
X133639938Y-54197242D01*
X133639937Y-54197242D01*
X133394072Y-54299082D01*
X133133063Y-54351000D01*
X132866937Y-54351000D01*
X132605928Y-54299082D01*
X132360063Y-54197242D01*
X132360062Y-54197242D01*
X132360061Y-54197241D01*
X132138788Y-54049390D01*
X131950610Y-53861212D01*
X131802759Y-53639939D01*
X131700918Y-53394072D01*
X131649000Y-53133062D01*
X131649000Y-52866938D01*
X131682755Y-52697242D01*
X131700918Y-52605928D01*
X131802758Y-52360063D01*
X131950609Y-52138789D01*
X132138789Y-51950609D01*
X132248672Y-51877187D01*
X132360061Y-51802759D01*
X132605928Y-51700918D01*
X132866937Y-51649000D01*
X133133063Y-51649000D01*
X133394072Y-51700918D01*
X133394072Y-51700918D01*
G37*
G36*
X149294072Y-50200918D02*
G01*
X149539939Y-50302759D01*
X149651328Y-50377187D01*
X149761211Y-50450609D01*
X149949391Y-50638789D01*
X150097242Y-50860063D01*
X150199082Y-51105928D01*
X150251000Y-51366937D01*
X150251000Y-51633063D01*
X150199082Y-51894072D01*
X150097718Y-52138789D01*
X150097241Y-52139939D01*
X149949390Y-52361212D01*
X149761212Y-52549390D01*
X149539939Y-52697241D01*
X149539938Y-52697242D01*
X149539937Y-52697242D01*
X149294072Y-52799082D01*
X149033063Y-52851000D01*
X148766937Y-52851000D01*
X148505928Y-52799082D01*
X148260063Y-52697242D01*
X148260062Y-52697242D01*
X148260061Y-52697241D01*
X148038788Y-52549390D01*
X147850610Y-52361212D01*
X147702759Y-52139939D01*
X147702283Y-52138789D01*
X147600918Y-51894072D01*
X147549000Y-51633063D01*
X147549000Y-51366937D01*
X147600918Y-51105928D01*
X147702758Y-50860063D01*
X147850609Y-50638789D01*
X148038789Y-50450609D01*
X148148672Y-50377187D01*
X148260061Y-50302759D01*
X148505928Y-50200918D01*
X148766937Y-50149000D01*
X149033063Y-50149000D01*
X149294072Y-50200918D01*
X149294072Y-50200918D01*
G37*
G36*
X154394072Y-50200918D02*
G01*
X154639939Y-50302759D01*
X154751328Y-50377187D01*
X154861211Y-50450609D01*
X155049391Y-50638789D01*
X155197242Y-50860063D01*
X155299082Y-51105928D01*
X155351000Y-51366937D01*
X155351000Y-51633063D01*
X155299082Y-51894072D01*
X155197718Y-52138789D01*
X155197241Y-52139939D01*
X155049390Y-52361212D01*
X154861212Y-52549390D01*
X154639939Y-52697241D01*
X154639938Y-52697242D01*
X154639937Y-52697242D01*
X154394072Y-52799082D01*
X154133063Y-52851000D01*
X153866937Y-52851000D01*
X153605928Y-52799082D01*
X153360063Y-52697242D01*
X153360062Y-52697242D01*
X153360061Y-52697241D01*
X153138788Y-52549390D01*
X152950610Y-52361212D01*
X152802759Y-52139939D01*
X152802283Y-52138789D01*
X152700918Y-51894072D01*
X152649000Y-51633063D01*
X152649000Y-51366937D01*
X152700918Y-51105928D01*
X152802758Y-50860063D01*
X152950609Y-50638789D01*
X153138789Y-50450609D01*
X153248672Y-50377187D01*
X153360061Y-50302759D01*
X153605928Y-50200918D01*
X153866937Y-50149000D01*
X154133063Y-50149000D01*
X154394072Y-50200918D01*
X154394072Y-50200918D01*
G37*
M02*
