G04 #@! TF.GenerationSoftware,KiCad,Pcbnew,(5.1.12)-1*
G04 #@! TF.CreationDate,2021-12-10T15:04:00-05:00*
G04 #@! TF.ProjectId,CANJunction,43414e4a-756e-4637-9469-6f6e2e6b6963,01*
G04 #@! TF.SameCoordinates,Original*
G04 #@! TF.FileFunction,Legend,Bot*
G04 #@! TF.FilePolarity,Positive*
%FSLAX46Y46*%
G04 Gerber Fmt 4.6, Leading zero omitted, Abs format (unit mm)*
G04 Created by KiCad (PCBNEW (5.1.12)-1) date 2021-12-10 15:04:00*
%MOMM*%
%LPD*%
G01*
G04 APERTURE LIST*
%ADD10C,0.150000*%
G04 APERTURE END LIST*
D10*
X128316666Y-58019166D02*
X128350000Y-57985833D01*
X128383333Y-57919166D01*
X128383333Y-57752500D01*
X128350000Y-57685833D01*
X128316666Y-57652500D01*
X128250000Y-57619166D01*
X128183333Y-57619166D01*
X128083333Y-57652500D01*
X127683333Y-58052500D01*
X127683333Y-57619166D01*
X127683333Y-56952500D02*
X127683333Y-57352500D01*
X127683333Y-57152500D02*
X128383333Y-57152500D01*
X128283333Y-57219166D01*
X128216666Y-57285833D01*
X128183333Y-57352500D01*
X127683333Y-56285833D02*
X127683333Y-56685833D01*
X127683333Y-56485833D02*
X128383333Y-56485833D01*
X128283333Y-56552500D01*
X128216666Y-56619166D01*
X128183333Y-56685833D01*
X128316666Y-56019166D02*
X128350000Y-55985833D01*
X128383333Y-55919166D01*
X128383333Y-55752500D01*
X128350000Y-55685833D01*
X128316666Y-55652500D01*
X128250000Y-55619166D01*
X128183333Y-55619166D01*
X128083333Y-55652500D01*
X127683333Y-56052500D01*
X127683333Y-55619166D01*
X128383333Y-55185833D02*
X128383333Y-55119166D01*
X128350000Y-55052500D01*
X128316666Y-55019166D01*
X128250000Y-54985833D01*
X128116666Y-54952500D01*
X127950000Y-54952500D01*
X127816666Y-54985833D01*
X127750000Y-55019166D01*
X127716666Y-55052500D01*
X127683333Y-55119166D01*
X127683333Y-55185833D01*
X127716666Y-55252500D01*
X127750000Y-55285833D01*
X127816666Y-55319166D01*
X127950000Y-55352500D01*
X128116666Y-55352500D01*
X128250000Y-55319166D01*
X128316666Y-55285833D01*
X128350000Y-55252500D01*
X128383333Y-55185833D01*
X127683333Y-54619166D02*
X127683333Y-54485833D01*
X127716666Y-54419166D01*
X127750000Y-54385833D01*
X127850000Y-54319166D01*
X127983333Y-54285833D01*
X128250000Y-54285833D01*
X128316666Y-54319166D01*
X128350000Y-54352500D01*
X128383333Y-54419166D01*
X128383333Y-54552500D01*
X128350000Y-54619166D01*
X128316666Y-54652500D01*
X128250000Y-54685833D01*
X128083333Y-54685833D01*
X128016666Y-54652500D01*
X127983333Y-54619166D01*
X127950000Y-54552500D01*
X127950000Y-54419166D01*
X127983333Y-54352500D01*
X128016666Y-54319166D01*
X128083333Y-54285833D01*
X127750000Y-53985833D02*
X127716666Y-53952500D01*
X127683333Y-53985833D01*
X127716666Y-54019166D01*
X127750000Y-53985833D01*
X127683333Y-53985833D01*
X128383333Y-53519166D02*
X128383333Y-53452500D01*
X128350000Y-53385833D01*
X128316666Y-53352500D01*
X128250000Y-53319166D01*
X128116666Y-53285833D01*
X127950000Y-53285833D01*
X127816666Y-53319166D01*
X127750000Y-53352500D01*
X127716666Y-53385833D01*
X127683333Y-53452500D01*
X127683333Y-53519166D01*
X127716666Y-53585833D01*
X127750000Y-53619166D01*
X127816666Y-53652500D01*
X127950000Y-53685833D01*
X128116666Y-53685833D01*
X128250000Y-53652500D01*
X128316666Y-53619166D01*
X128350000Y-53585833D01*
X128383333Y-53519166D01*
X127683333Y-52619166D02*
X127683333Y-53019166D01*
X127683333Y-52819166D02*
X128383333Y-52819166D01*
X128283333Y-52885833D01*
X128216666Y-52952500D01*
X128183333Y-53019166D01*
X129000000Y-57585833D02*
X128966666Y-57619166D01*
X128933333Y-57719166D01*
X128933333Y-57785833D01*
X128966666Y-57885833D01*
X129033333Y-57952500D01*
X129100000Y-57985833D01*
X129233333Y-58019166D01*
X129333333Y-58019166D01*
X129466666Y-57985833D01*
X129533333Y-57952500D01*
X129600000Y-57885833D01*
X129633333Y-57785833D01*
X129633333Y-57719166D01*
X129600000Y-57619166D01*
X129566666Y-57585833D01*
X129133333Y-57319166D02*
X129133333Y-56985833D01*
X128933333Y-57385833D02*
X129633333Y-57152500D01*
X128933333Y-56919166D01*
X128933333Y-56685833D02*
X129633333Y-56685833D01*
X128933333Y-56285833D01*
X129633333Y-56285833D01*
X129633333Y-55752500D02*
X129133333Y-55752500D01*
X129033333Y-55785833D01*
X128966666Y-55852500D01*
X128933333Y-55952500D01*
X128933333Y-56019166D01*
X129400000Y-55119166D02*
X128933333Y-55119166D01*
X129400000Y-55419166D02*
X129033333Y-55419166D01*
X128966666Y-55385833D01*
X128933333Y-55319166D01*
X128933333Y-55219166D01*
X128966666Y-55152500D01*
X129000000Y-55119166D01*
X129400000Y-54785833D02*
X128933333Y-54785833D01*
X129333333Y-54785833D02*
X129366666Y-54752500D01*
X129400000Y-54685833D01*
X129400000Y-54585833D01*
X129366666Y-54519166D01*
X129300000Y-54485833D01*
X128933333Y-54485833D01*
X128966666Y-53852500D02*
X128933333Y-53919166D01*
X128933333Y-54052500D01*
X128966666Y-54119166D01*
X129000000Y-54152500D01*
X129066666Y-54185833D01*
X129266666Y-54185833D01*
X129333333Y-54152500D01*
X129366666Y-54119166D01*
X129400000Y-54052500D01*
X129400000Y-53919166D01*
X129366666Y-53852500D01*
X129400000Y-53652500D02*
X129400000Y-53385833D01*
X129633333Y-53552500D02*
X129033333Y-53552500D01*
X128966666Y-53519166D01*
X128933333Y-53452500D01*
X128933333Y-53385833D01*
X128933333Y-53152500D02*
X129400000Y-53152500D01*
X129633333Y-53152500D02*
X129600000Y-53185833D01*
X129566666Y-53152500D01*
X129600000Y-53119166D01*
X129633333Y-53152500D01*
X129566666Y-53152500D01*
X128933333Y-52719166D02*
X128966666Y-52785833D01*
X129000000Y-52819166D01*
X129066666Y-52852500D01*
X129266666Y-52852500D01*
X129333333Y-52819166D01*
X129366666Y-52785833D01*
X129400000Y-52719166D01*
X129400000Y-52619166D01*
X129366666Y-52552500D01*
X129333333Y-52519166D01*
X129266666Y-52485833D01*
X129066666Y-52485833D01*
X129000000Y-52519166D01*
X128966666Y-52552500D01*
X128933333Y-52619166D01*
X128933333Y-52719166D01*
X129400000Y-52185833D02*
X128933333Y-52185833D01*
X129333333Y-52185833D02*
X129366666Y-52152500D01*
X129400000Y-52085833D01*
X129400000Y-51985833D01*
X129366666Y-51919166D01*
X129300000Y-51885833D01*
X128933333Y-51885833D01*
X151095238Y-70452380D02*
X150857142Y-71452380D01*
X150666666Y-70738095D01*
X150476190Y-71452380D01*
X150238095Y-70452380D01*
X149857142Y-71452380D02*
X149857142Y-70452380D01*
X149428571Y-71452380D02*
X149428571Y-70928571D01*
X149476190Y-70833333D01*
X149571428Y-70785714D01*
X149714285Y-70785714D01*
X149809523Y-70833333D01*
X149857142Y-70880952D01*
X148523809Y-71452380D02*
X148523809Y-70928571D01*
X148571428Y-70833333D01*
X148666666Y-70785714D01*
X148857142Y-70785714D01*
X148952380Y-70833333D01*
X148523809Y-71404761D02*
X148619047Y-71452380D01*
X148857142Y-71452380D01*
X148952380Y-71404761D01*
X149000000Y-71309523D01*
X149000000Y-71214285D01*
X148952380Y-71119047D01*
X148857142Y-71071428D01*
X148619047Y-71071428D01*
X148523809Y-71023809D01*
X148190476Y-70785714D02*
X147809523Y-70785714D01*
X148047619Y-70452380D02*
X148047619Y-71309523D01*
X148000000Y-71404761D01*
X147904761Y-71452380D01*
X147809523Y-71452380D01*
X147428571Y-70452380D02*
X147523809Y-70642857D01*
X147047619Y-71404761D02*
X146952380Y-71452380D01*
X146761904Y-71452380D01*
X146666666Y-71404761D01*
X146619047Y-71309523D01*
X146619047Y-71261904D01*
X146666666Y-71166666D01*
X146761904Y-71119047D01*
X146904761Y-71119047D01*
X147000000Y-71071428D01*
X147047619Y-70976190D01*
X147047619Y-70928571D01*
X147000000Y-70833333D01*
X146904761Y-70785714D01*
X146761904Y-70785714D01*
X146666666Y-70833333D01*
X145523809Y-70785714D02*
X145285714Y-71452380D01*
X145047619Y-70785714D02*
X145285714Y-71452380D01*
X145380952Y-71690476D01*
X145428571Y-71738095D01*
X145523809Y-71785714D01*
X144523809Y-71452380D02*
X144619047Y-71404761D01*
X144666666Y-71357142D01*
X144714285Y-71261904D01*
X144714285Y-70976190D01*
X144666666Y-70880952D01*
X144619047Y-70833333D01*
X144523809Y-70785714D01*
X144380952Y-70785714D01*
X144285714Y-70833333D01*
X144238095Y-70880952D01*
X144190476Y-70976190D01*
X144190476Y-71261904D01*
X144238095Y-71357142D01*
X144285714Y-71404761D01*
X144380952Y-71452380D01*
X144523809Y-71452380D01*
X143333333Y-70785714D02*
X143333333Y-71452380D01*
X143761904Y-70785714D02*
X143761904Y-71309523D01*
X143714285Y-71404761D01*
X143619047Y-71452380D01*
X143476190Y-71452380D01*
X143380952Y-71404761D01*
X143333333Y-71357142D01*
X142857142Y-71452380D02*
X142857142Y-70785714D01*
X142857142Y-70976190D02*
X142809523Y-70880952D01*
X142761904Y-70833333D01*
X142666666Y-70785714D01*
X142571428Y-70785714D01*
X141619047Y-70785714D02*
X141238095Y-70785714D01*
X141476190Y-71452380D02*
X141476190Y-70595238D01*
X141428571Y-70500000D01*
X141333333Y-70452380D01*
X141238095Y-70452380D01*
X140476190Y-70785714D02*
X140476190Y-71452380D01*
X140904761Y-70785714D02*
X140904761Y-71309523D01*
X140857142Y-71404761D01*
X140761904Y-71452380D01*
X140619047Y-71452380D01*
X140523809Y-71404761D01*
X140476190Y-71357142D01*
X140000000Y-70785714D02*
X140000000Y-71452380D01*
X140000000Y-70880952D02*
X139952380Y-70833333D01*
X139857142Y-70785714D01*
X139714285Y-70785714D01*
X139619047Y-70833333D01*
X139571428Y-70928571D01*
X139571428Y-71452380D01*
X138666666Y-71404761D02*
X138761904Y-71452380D01*
X138952380Y-71452380D01*
X139047619Y-71404761D01*
X139095238Y-71357142D01*
X139142857Y-71261904D01*
X139142857Y-70976190D01*
X139095238Y-70880952D01*
X139047619Y-70833333D01*
X138952380Y-70785714D01*
X138761904Y-70785714D01*
X138666666Y-70833333D01*
X138380952Y-70785714D02*
X138000000Y-70785714D01*
X138238095Y-70452380D02*
X138238095Y-71309523D01*
X138190476Y-71404761D01*
X138095238Y-71452380D01*
X138000000Y-71452380D01*
X137666666Y-71452380D02*
X137666666Y-70785714D01*
X137666666Y-70452380D02*
X137714285Y-70500000D01*
X137666666Y-70547619D01*
X137619047Y-70500000D01*
X137666666Y-70452380D01*
X137666666Y-70547619D01*
X137047619Y-71452380D02*
X137142857Y-71404761D01*
X137190476Y-71357142D01*
X137238095Y-71261904D01*
X137238095Y-70976190D01*
X137190476Y-70880952D01*
X137142857Y-70833333D01*
X137047619Y-70785714D01*
X136904761Y-70785714D01*
X136809523Y-70833333D01*
X136761904Y-70880952D01*
X136714285Y-70976190D01*
X136714285Y-71261904D01*
X136761904Y-71357142D01*
X136809523Y-71404761D01*
X136904761Y-71452380D01*
X137047619Y-71452380D01*
X136285714Y-70785714D02*
X136285714Y-71452380D01*
X136285714Y-70880952D02*
X136238095Y-70833333D01*
X136142857Y-70785714D01*
X136000000Y-70785714D01*
X135904761Y-70833333D01*
X135857142Y-70928571D01*
X135857142Y-71452380D01*
X135238095Y-71357142D02*
X135190476Y-71404761D01*
X135238095Y-71452380D01*
X135285714Y-71404761D01*
X135238095Y-71357142D01*
X135238095Y-71452380D01*
X135428571Y-70500000D02*
X135333333Y-70452380D01*
X135095238Y-70452380D01*
X135000000Y-70500000D01*
X134952380Y-70595238D01*
X134952380Y-70690476D01*
X135000000Y-70785714D01*
X135047619Y-70833333D01*
X135142857Y-70880952D01*
X135190476Y-70928571D01*
X135238095Y-71023809D01*
X135238095Y-71071428D01*
X149928571Y-69857142D02*
X149976190Y-69904761D01*
X150119047Y-69952380D01*
X150214285Y-69952380D01*
X150357142Y-69904761D01*
X150452380Y-69809523D01*
X150500000Y-69714285D01*
X150547619Y-69523809D01*
X150547619Y-69380952D01*
X150500000Y-69190476D01*
X150452380Y-69095238D01*
X150357142Y-69000000D01*
X150214285Y-68952380D01*
X150119047Y-68952380D01*
X149976190Y-69000000D01*
X149928571Y-69047619D01*
X149547619Y-69666666D02*
X149071428Y-69666666D01*
X149642857Y-69952380D02*
X149309523Y-68952380D01*
X148976190Y-69952380D01*
X148642857Y-69952380D02*
X148642857Y-68952380D01*
X148071428Y-69952380D01*
X148071428Y-68952380D01*
X147309523Y-68952380D02*
X147309523Y-69666666D01*
X147357142Y-69809523D01*
X147452380Y-69904761D01*
X147595238Y-69952380D01*
X147690476Y-69952380D01*
X146404761Y-69285714D02*
X146404761Y-69952380D01*
X146833333Y-69285714D02*
X146833333Y-69809523D01*
X146785714Y-69904761D01*
X146690476Y-69952380D01*
X146547619Y-69952380D01*
X146452380Y-69904761D01*
X146404761Y-69857142D01*
X145928571Y-69285714D02*
X145928571Y-69952380D01*
X145928571Y-69380952D02*
X145880952Y-69333333D01*
X145785714Y-69285714D01*
X145642857Y-69285714D01*
X145547619Y-69333333D01*
X145500000Y-69428571D01*
X145500000Y-69952380D01*
X144595238Y-69904761D02*
X144690476Y-69952380D01*
X144880952Y-69952380D01*
X144976190Y-69904761D01*
X145023809Y-69857142D01*
X145071428Y-69761904D01*
X145071428Y-69476190D01*
X145023809Y-69380952D01*
X144976190Y-69333333D01*
X144880952Y-69285714D01*
X144690476Y-69285714D01*
X144595238Y-69333333D01*
X144309523Y-69285714D02*
X143928571Y-69285714D01*
X144166666Y-68952380D02*
X144166666Y-69809523D01*
X144119047Y-69904761D01*
X144023809Y-69952380D01*
X143928571Y-69952380D01*
X143595238Y-69952380D02*
X143595238Y-69285714D01*
X143595238Y-68952380D02*
X143642857Y-69000000D01*
X143595238Y-69047619D01*
X143547619Y-69000000D01*
X143595238Y-68952380D01*
X143595238Y-69047619D01*
X142976190Y-69952380D02*
X143071428Y-69904761D01*
X143119047Y-69857142D01*
X143166666Y-69761904D01*
X143166666Y-69476190D01*
X143119047Y-69380952D01*
X143071428Y-69333333D01*
X142976190Y-69285714D01*
X142833333Y-69285714D01*
X142738095Y-69333333D01*
X142690476Y-69380952D01*
X142642857Y-69476190D01*
X142642857Y-69761904D01*
X142690476Y-69857142D01*
X142738095Y-69904761D01*
X142833333Y-69952380D01*
X142976190Y-69952380D01*
X142214285Y-69285714D02*
X142214285Y-69952380D01*
X142214285Y-69380952D02*
X142166666Y-69333333D01*
X142071428Y-69285714D01*
X141928571Y-69285714D01*
X141833333Y-69333333D01*
X141785714Y-69428571D01*
X141785714Y-69952380D01*
X141023809Y-68952380D02*
X141023809Y-69666666D01*
X141071428Y-69809523D01*
X141166666Y-69904761D01*
X141309523Y-69952380D01*
X141404761Y-69952380D01*
X140119047Y-69285714D02*
X140119047Y-69952380D01*
X140547619Y-69285714D02*
X140547619Y-69809523D01*
X140500000Y-69904761D01*
X140404761Y-69952380D01*
X140261904Y-69952380D01*
X140166666Y-69904761D01*
X140119047Y-69857142D01*
X139642857Y-69285714D02*
X139642857Y-69952380D01*
X139642857Y-69380952D02*
X139595238Y-69333333D01*
X139500000Y-69285714D01*
X139357142Y-69285714D01*
X139261904Y-69333333D01*
X139214285Y-69428571D01*
X139214285Y-69952380D01*
X138309523Y-69904761D02*
X138404761Y-69952380D01*
X138595238Y-69952380D01*
X138690476Y-69904761D01*
X138738095Y-69857142D01*
X138785714Y-69761904D01*
X138785714Y-69476190D01*
X138738095Y-69380952D01*
X138690476Y-69333333D01*
X138595238Y-69285714D01*
X138404761Y-69285714D01*
X138309523Y-69333333D01*
X138023809Y-69285714D02*
X137642857Y-69285714D01*
X137880952Y-68952380D02*
X137880952Y-69809523D01*
X137833333Y-69904761D01*
X137738095Y-69952380D01*
X137642857Y-69952380D01*
X137309523Y-69952380D02*
X137309523Y-69285714D01*
X137309523Y-68952380D02*
X137357142Y-69000000D01*
X137309523Y-69047619D01*
X137261904Y-69000000D01*
X137309523Y-68952380D01*
X137309523Y-69047619D01*
X136690476Y-69952380D02*
X136785714Y-69904761D01*
X136833333Y-69857142D01*
X136880952Y-69761904D01*
X136880952Y-69476190D01*
X136833333Y-69380952D01*
X136785714Y-69333333D01*
X136690476Y-69285714D01*
X136547619Y-69285714D01*
X136452380Y-69333333D01*
X136404761Y-69380952D01*
X136357142Y-69476190D01*
X136357142Y-69761904D01*
X136404761Y-69857142D01*
X136452380Y-69904761D01*
X136547619Y-69952380D01*
X136690476Y-69952380D01*
X135928571Y-69285714D02*
X135928571Y-69952380D01*
X135928571Y-69380952D02*
X135880952Y-69333333D01*
X135785714Y-69285714D01*
X135642857Y-69285714D01*
X135547619Y-69333333D01*
X135500000Y-69428571D01*
X135500000Y-69952380D01*
M02*
